<svg width="70" height="71" viewBox="0 0 70 71" fill="none" xmlns="http://www.w3.org/2000/svg">
<circle cx="35" cy="35.5" r="34.5" fill="#00BAB1" stroke="#333333"/>
<path d="M37.3224 36.9398C36.3237 37.9947 34.6746 37.9947 33.6758 36.9398C32.6771 35.8849 32.6771 34.1737 33.6758 33.0954C34.6746 32.0171 36.3237 32.0405 37.3224 33.0954C38.3212 34.1502 38.3212 35.8615 37.3224 36.9398Z" fill="#00BAB1" stroke="#333333" stroke-width="2" stroke-linecap="round" stroke-linejoin="round"/>
<path d="M52.9771 44.1364C54.3243 41.2999 55.0443 38.1119 54.9979 34.7129C54.8353 23.7422 46.3807 14.7641 35.9519 14.5062C24.9888 14.2249 16 23.5312 16 35.0176C16 37.8775 16.5574 40.5967 17.5562 43.0581" fill="#00BAB1"/>
<path d="M52.9771 44.1364C54.3243 41.2999 55.0443 38.1119 54.9979 34.7129C54.8353 23.7422 46.3807 14.7641 35.9519 14.5062C24.9888 14.2249 16 23.5312 16 35.0176C16 37.8775 16.5574 40.5967 17.5562 43.0581" stroke="#333333" stroke-width="2" stroke-linecap="round" stroke-linejoin="round"/>
<path d="M37.3223 33.1188L46.7524 23.1796" stroke="#333333" stroke-width="2" stroke-linecap="round" stroke-linejoin="round"/>
<path d="M33.6761 36.9398L31.4463 39.284" stroke="#333333" stroke-width="2" stroke-linecap="round" stroke-linejoin="round"/>
<path d="M48.4016 28.9932C48.0764 28.2196 47.6815 27.4695 47.2402 26.7662L48.4016 28.9932Z" fill="#00BAB1"/>
<path d="M48.4016 28.9932C48.0764 28.2196 47.6815 27.4695 47.2402 26.7662" stroke="#333333" stroke-width="2" stroke-linecap="round" stroke-linejoin="round"/>
<path d="M49.6092 35.0177C49.6092 34.1035 49.5395 33.1892 49.377 32.3219L49.6092 35.0177Z" fill="#00BAB1"/>
<path d="M49.6092 35.0177C49.6092 34.1035 49.5395 33.1892 49.377 32.3219" stroke="#333333" stroke-width="2" stroke-linecap="round" stroke-linejoin="round"/>
<path d="M48.4941 40.8077C48.8193 39.9872 49.0748 39.1433 49.2606 38.2526L48.4941 40.8077Z" fill="#00BAB1"/>
<path d="M48.4941 40.8077C48.8193 39.9872 49.0748 39.1433 49.2606 38.2526" stroke="#333333" stroke-width="2" stroke-linecap="round" stroke-linejoin="round"/>
<path d="M25.9881 37.6899C25.779 36.8226 25.6396 35.9318 25.6396 34.9941C25.6396 29.2509 30.0528 24.6095 35.5111 24.6095C37.1834 24.6095 38.7396 25.0549 40.1332 25.805" fill="#00BAB1"/>
<path d="M25.9881 37.6899C25.779 36.8226 25.6396 35.9318 25.6396 34.9941C25.6396 29.2509 30.0528 24.6095 35.5111 24.6095C37.1834 24.6095 38.7396 25.0549 40.1332 25.805" stroke="#333333" stroke-width="2" stroke-linecap="round" stroke-linejoin="round"/>
<path d="M37.1358 49.3638L28.867 43.4097V46.5977H16.4639V52.1299H28.867V55.2945L37.1358 49.3638Z" fill="#00BAB1" stroke="#333333" stroke-width="2" stroke-linecap="round" stroke-linejoin="round"/>
<path d="M38.8789 52.1299H46.3115V55.2945L54.5803 49.3638L46.3115 43.4097V46.5977H38.8789" fill="#00BAB1"/>
<path d="M38.8789 52.1299H46.3115V55.2945L54.5803 49.3638L46.3115 43.4097V46.5977H38.8789" stroke="#333333" stroke-width="2" stroke-linecap="round" stroke-linejoin="round"/>
<path d="M23.0612 41.9094C22.016 39.8466 21.4121 37.479 21.4121 34.9707C21.4121 26.7896 27.7066 20.1556 35.4876 20.1556C38.3445 20.1556 40.9923 21.0464 43.1989 22.5701" fill="#00BAB1"/>
<path d="M23.0612 41.9094C22.016 39.8466 21.4121 37.479 21.4121 34.9707C21.4121 26.7896 27.7066 20.1556 35.4876 20.1556C38.3445 20.1556 40.9923 21.0464 43.1989 22.5701" stroke="#333333" stroke-width="2" stroke-linecap="round" stroke-linejoin="round"/>
</svg>
