<svg width="70" height="71" viewBox="0 0 70 71" fill="none" xmlns="http://www.w3.org/2000/svg">
<circle cx="35" cy="35.5" r="35" fill="#006076"/>
<path d="M49.5643 10.5L55.7203 21.8028H53.1596L57.7119 31.602H57.7377H51.2456H51.0904V38.6533H49.4092H47.7538V31.602H47.5986H41.1064H41.1323L45.6587 21.8028H43.1239L49.2798 10.5" stroke="white" stroke-width="2" stroke-linecap="round" stroke-linejoin="round"/>
<path d="M30.8643 26.2616L35.5976 26.2357" stroke="white" stroke-width="2" stroke-linecap="round" stroke-linejoin="round"/>
<path d="M36.7868 16.1514H19.0951C17.9311 16.1514 17 17.1624 17 18.3808V55.2964C17 56.5149 17.957 57.5 19.1209 57.5H47.314C48.4779 57.5 49.409 56.4889 49.409 55.2705V43.1381" stroke="white" stroke-width="2" stroke-linecap="round" stroke-linejoin="round"/>
<path d="M22.5352 25.9247L24.4492 28.2319L27.4495 24.0322" stroke="white" stroke-width="2" stroke-linecap="round" stroke-linejoin="round"/>
<path d="M30.8896 37.3313H39.9166" stroke="white" stroke-width="2" stroke-linecap="round" stroke-linejoin="round"/>
<path d="M22.5605 36.9942L24.4487 39.3274L27.4491 35.1277" stroke="white" stroke-width="2" stroke-linecap="round" stroke-linejoin="round"/>
<path d="M30.8896 48.4266H43.1497" stroke="white" stroke-width="2" stroke-linecap="round" stroke-linejoin="round"/>
<path d="M22.5605 48.0895L24.4487 50.4227L27.4491 46.223" stroke="white" stroke-width="2" stroke-linecap="round" stroke-linejoin="round"/>
</svg>
