<svg width="70" height="70" viewBox="0 0 70 70" fill="none" xmlns="http://www.w3.org/2000/svg">
<circle cx="35" cy="35" r="35" fill="#00BAB1"/>
<path d="M35.0415 22.9596C23.1331 22.9596 12 35.4184 12 35.4184C12 35.4184 23.1331 47.8773 35.0415 47.8773C46.95 47.8773 58 35.4184 58 35.4184C58 35.4184 46.95 22.9596 35.0415 22.9596Z" stroke="#393939" stroke-width="2" stroke-linecap="round" stroke-linejoin="round"/>
<path d="M55.9229 18.3987L52.9873 21.7081" stroke="#393939" stroke-width="2" stroke-linecap="round" stroke-linejoin="round"/>
<path d="M46.7015 12.642L44.5137 17.8424" stroke="#393939" stroke-width="2" stroke-linecap="round" stroke-linejoin="round"/>
<path d="M14.0771 18.3987L17.0127 21.7081" stroke="#393939" stroke-width="2" stroke-linecap="round" stroke-linejoin="round"/>
<path d="M23.2998 12.642L25.4876 17.8424" stroke="#393939" stroke-width="2" stroke-linecap="round" stroke-linejoin="round"/>
<path d="M35.014 10L34.9863 16.2294" stroke="#393939" stroke-width="2" stroke-linecap="round" stroke-linejoin="round"/>
<path d="M14.0771 52.4379L17.0127 49.1564" stroke="#393939" stroke-width="2" stroke-linecap="round" stroke-linejoin="round"/>
<path d="M23.2998 58.1945L25.46 52.994" stroke="#393939" stroke-width="2" stroke-linecap="round" stroke-linejoin="round"/>
<path d="M55.8965 52.4379L52.9609 49.1564" stroke="#393939" stroke-width="2" stroke-linecap="round" stroke-linejoin="round"/>
<path d="M46.6738 58.1945L44.5137 52.994" stroke="#393939" stroke-width="2" stroke-linecap="round" stroke-linejoin="round"/>
<path d="M34.9863 60.8643V54.6071" stroke="#393939" stroke-width="2" stroke-linecap="round" stroke-linejoin="round"/>
<path d="M46.0361 29.4669C47.4208 31.1355 48.224 33.1934 48.224 35.4182C48.224 37.643 47.4208 39.701 46.0361 41.3696" stroke="#393939" stroke-width="2" stroke-linecap="round" stroke-linejoin="round"/>
<path d="M23.9369 41.3973C22.5522 39.7287 21.749 37.6707 21.749 35.4459C21.749 33.2212 22.5522 31.1632 23.9369 29.4946" stroke="#393939" stroke-width="2" stroke-linecap="round" stroke-linejoin="round"/>
<path d="M26.0137 32.3314V38.6999H29.1431" stroke="#393939" stroke-width="2" stroke-linecap="round" stroke-linejoin="round"/>
<path d="M31.9668 32.3314V38.6999H35.0962" stroke="#393939" stroke-width="2" stroke-linecap="round" stroke-linejoin="round"/>
<path d="M38.0059 38.6999L39.169 32.3314L40.9968 38.6999" stroke="#393939" stroke-width="2" stroke-linecap="round" stroke-linejoin="round"/>
<path d="M39.168 32.3314L40.9958 38.6999" stroke="#393939" stroke-width="2" stroke-linecap="round" stroke-linejoin="round"/>
<path d="M43.9861 38.6999L42.8229 32.3314L40.9951 38.6999" stroke="#393939" stroke-width="2" stroke-linecap="round" stroke-linejoin="round"/>
<path d="M42.8229 32.3314L40.9951 38.6999" stroke="#393939" stroke-width="2" stroke-linecap="round" stroke-linejoin="round"/>
</svg>
