<svg width="70" height="71" viewBox="0 0 70 71" fill="none" xmlns="http://www.w3.org/2000/svg">
<circle cx="35" cy="35.5" r="35" fill="#006076"/>
<path d="M21.337 34.4232L26.6614 44.2464H24.445L28.3938 52.7394H22.7636H22.6363V58.8789H21.2096H19.7575V52.7394H19.6301H14H14.0255L17.9487 44.2464H15.7323L21.0822 34.4232" stroke="white" stroke-width="2" stroke-linecap="round" stroke-linejoin="round"/>
<path d="M35.4503 23.0396L40.7747 32.8628H38.5583L42.5071 41.3813H36.9024H36.7495V47.4953H35.3229H33.8708V41.3813H33.7434H28.1133H28.1388L32.062 32.8628H29.8456L35.1955 23.0396" stroke="white" stroke-width="2" stroke-linecap="round" stroke-linejoin="round"/>
<path d="M48.6466 34.4232L53.971 44.2464H51.7546L55.7033 52.7394H55.7288H50.0987H49.9458V58.8789H48.5192H47.0671V52.7394H46.9397H41.3096H41.335L45.2583 44.2464H43.0419L48.3918 34.4232" stroke="white" stroke-width="2" stroke-linecap="round" stroke-linejoin="round"/>
<path d="M48.5199 20.379C47.7811 15.9023 44.0616 12.5 39.5779 12.5C36.4189 12.5 33.6676 14.1884 32.0371 16.7209" stroke="white" stroke-width="2" stroke-linecap="round" stroke-linejoin="round"/>
<path d="M23.4255 26.493C22.5084 25.9046 21.4129 25.5465 20.241 25.5465C16.8782 25.5465 14.1523 28.4116 14.1523 31.9163C14.1523 33.5279 14.7128 34.986 15.6554 36.086" stroke="white" stroke-width="2" stroke-linecap="round" stroke-linejoin="round"/>
<path d="M44.7236 24.4977C46.0484 23.5767 47.6533 23.0907 49.4112 23.2442C52.9268 23.5512 55.7546 26.5953 55.9839 30.279C56.1113 32.2744 55.4744 34.1162 54.3789 35.5488" stroke="white" stroke-width="2" stroke-linecap="round" stroke-linejoin="round"/>
<path d="M21.0059 23.193C21.8211 19.4325 25.031 16.6442 28.8779 16.6442C30.8904 16.6442 32.7502 17.4116 34.1513 18.6907" stroke="white" stroke-width="2" stroke-linecap="round" stroke-linejoin="round"/>
</svg>
