<svg width="144" height="89" viewBox="0 0 144 89" fill="none" xmlns="http://www.w3.org/2000/svg">
<path d="M71.4488 73.6752C71.1384 73.6721 70.8342 73.5891 70.5652 73.4343L67.6566 71.7132C67.2263 71.4722 67.4386 71.3862 67.582 71.3345C68.04 71.198 68.4793 71.0053 68.89 70.7608C68.9235 70.7427 68.961 70.7333 68.999 70.7333C69.0371 70.7333 69.0745 70.7427 69.108 70.7608L71.3397 72.0861C71.3811 72.1087 71.4275 72.1205 71.4746 72.1205C71.5217 72.1205 71.568 72.1087 71.6094 72.0861L80.3125 67.0662C80.3524 67.0412 80.3855 67.0065 80.4085 66.9654C80.4316 66.9243 80.4439 66.8781 80.4445 66.8309V56.7968C80.4451 56.7488 80.4326 56.7015 80.4083 56.6601C80.3841 56.6186 80.3489 56.5846 80.3068 56.5616L71.6094 51.5417C71.5691 51.5191 71.5237 51.5072 71.4774 51.5072C71.4312 51.5072 71.3858 51.5191 71.3455 51.5417L62.6481 56.5616C62.6063 56.5851 62.5716 56.6192 62.5474 56.6605C62.5232 56.7019 62.5104 56.7489 62.5104 56.7968V66.8424C62.5108 66.8895 62.5238 66.9356 62.548 66.9759C62.5722 67.0162 62.6068 67.0494 62.6481 67.0719L65.029 68.4488C66.3256 69.0971 67.1173 68.334 67.1173 67.571V57.6402C67.1165 57.6068 67.1225 57.5736 67.1349 57.5427C67.1473 57.5117 67.1659 57.4835 67.1895 57.4599C67.2131 57.4363 67.2412 57.4178 67.2722 57.4054C67.3032 57.393 67.3363 57.387 67.3697 57.3878H68.4712C68.5382 57.3878 68.6024 57.4143 68.6497 57.4617C68.6971 57.509 68.7237 57.5732 68.7237 57.6402V67.5538C68.7237 69.2749 67.7828 70.2674 66.1477 70.2674C65.4392 70.2715 64.7443 70.0724 64.1455 69.6937L61.8507 68.3799C61.5736 68.2186 61.3436 67.9876 61.1836 67.7098C61.0235 67.432 60.939 67.1171 60.9385 66.7965V56.7968C60.9396 56.4763 61.0243 56.1617 61.1843 55.884C61.3443 55.6063 61.574 55.3751 61.8507 55.2134L70.5652 50.1705C70.8442 50.0153 71.1582 49.9338 71.4774 49.9338C71.7967 49.9338 72.1107 50.0153 72.3896 50.1705L81.0927 55.1962C81.3666 55.363 81.5922 55.5984 81.7472 55.8791C81.9021 56.1599 81.9811 56.4762 81.9762 56.7968V66.8424C81.9751 67.1629 81.8904 67.4775 81.7304 67.7553C81.5704 68.033 81.3407 68.2641 81.0641 68.4258L72.3609 73.4343C72.0836 73.594 71.7688 73.6771 71.4488 73.6752Z" fill="#679E63"/>
<path d="M74.1336 66.762C70.3242 66.762 69.5439 65.0122 69.5439 63.5493C69.5439 63.4823 69.5705 63.4181 69.6179 63.3708C69.6652 63.3234 69.7294 63.2968 69.7964 63.2968H70.9438C71.004 63.2972 71.0622 63.3187 71.1083 63.3574C71.1544 63.3962 71.1855 63.4498 71.1962 63.5091C71.3626 64.6565 71.8732 65.2302 74.1737 65.2302C76.0096 65.2302 76.7898 64.8172 76.7898 63.8476C76.7898 63.2739 76.5661 62.8666 73.7205 62.5912C71.3396 62.356 69.8652 61.8282 69.8652 59.9235C69.8652 58.1679 71.3454 57.1238 73.8238 57.1238C76.612 57.1238 77.9946 58.0876 78.1667 60.1644C78.1693 60.1999 78.1645 60.2356 78.1527 60.2691C78.1409 60.3027 78.1222 60.3335 78.0979 60.3595C78.0742 60.3844 78.0457 60.4044 78.0142 60.4182C77.9827 60.432 77.9487 60.4393 77.9143 60.4398H76.7669C76.71 60.4384 76.6552 60.4178 76.6114 60.3814C76.5677 60.3449 76.5376 60.2947 76.5259 60.239C76.2563 59.0342 75.5965 58.6498 73.8066 58.6498C71.8043 58.6498 71.5749 59.3498 71.5749 59.8718C71.5749 60.5029 71.8502 60.6865 74.5524 61.0192C77.2545 61.352 78.4937 61.8683 78.4937 63.7501C78.4937 65.6318 76.8759 66.762 74.1336 66.762Z" fill="#679E63"/>
<path d="M86.6812 56.2231C86.6824 56.556 86.5846 56.8818 86.4003 57.1591C86.2161 57.4364 85.9536 57.6528 85.6462 57.7807C85.3388 57.9086 85.0004 57.9424 84.6738 57.8777C84.3472 57.8131 84.0471 57.6529 83.8117 57.4174C83.5762 57.182 83.416 56.8819 83.3514 56.5553C83.2867 56.2287 83.3205 55.8903 83.4484 55.5829C83.5763 55.2755 83.7927 55.013 84.07 54.8288C84.3473 54.6445 84.6731 54.5467 85.006 54.5479C85.4498 54.5494 85.8751 54.7264 86.1889 55.0402C86.5027 55.354 86.6797 55.7792 86.6812 56.2231ZM83.6004 56.2231C83.5989 56.4079 83.634 56.5911 83.7037 56.7623C83.7734 56.9335 83.8762 57.0891 84.0064 57.2203C84.1365 57.3515 84.2913 57.4557 84.4619 57.5267C84.6325 57.5978 84.8155 57.6344 85.0003 57.6344C85.3731 57.6344 85.7306 57.4863 85.9942 57.2227C86.2578 56.9591 86.4059 56.6016 86.4059 56.2288C86.4059 55.856 86.2578 55.4985 85.9942 55.2349C85.7306 54.9713 85.3731 54.8232 85.0003 54.8232C84.8165 54.8232 84.6344 54.8594 84.4646 54.9298C84.2948 55.0001 84.1404 55.1033 84.0104 55.2332C83.8805 55.3632 83.7773 55.5175 83.707 55.6874C83.6366 55.8572 83.6004 56.0392 83.6004 56.2231ZM84.3749 55.2879H85.0232C85.2412 55.2879 85.6773 55.2879 85.6773 55.7871C85.6873 55.8944 85.6562 56.0016 85.5901 56.0869C85.5241 56.1721 85.4281 56.229 85.3216 56.246C85.5797 56.246 85.5969 56.4354 85.6314 56.6763C85.6438 56.8441 85.6766 57.0098 85.7289 57.1697H85.333C85.333 57.0836 85.2585 56.596 85.2585 56.596C85.2585 56.487 85.2011 56.4354 85.0634 56.4354H84.7364V57.1869H84.3749V55.2879ZM84.7306 56.1141H85.0232C85.0597 56.1183 85.0966 56.1145 85.1315 56.103C85.1664 56.0915 85.1983 56.0725 85.225 56.0474C85.2518 56.0222 85.2728 55.9916 85.2865 55.9575C85.3002 55.9235 85.3063 55.8868 85.3043 55.8502C85.3043 55.592 85.1265 55.592 85.029 55.592H84.7306V56.1141Z" fill="#679E63"/>
<path fill-rule="evenodd" clip-rule="evenodd" d="M44.5023 34.4223C44.5021 34.2242 44.4489 34.0297 44.3479 33.8591C44.247 33.6886 44.1022 33.5482 43.9286 33.4528L34.7206 28.1116C34.5661 28.0234 34.3933 27.9723 34.2157 27.9624H34.1182C33.9387 27.9714 33.7638 28.0225 33.6076 28.1116L24.3882 33.4241C24.2172 33.5227 24.0746 33.6638 23.9741 33.8336C23.8736 34.0034 23.8186 34.1963 23.8145 34.3936V48.6904C23.8158 48.7874 23.8418 48.8826 23.89 48.9668C23.9381 49.0511 24.0069 49.1218 24.0898 49.1723C24.177 49.2226 24.276 49.2491 24.3767 49.2491C24.4774 49.2491 24.5763 49.2226 24.6635 49.1723L30.1424 46.0284C30.3125 45.9303 30.4546 45.7901 30.5551 45.6213C30.6555 45.4526 30.711 45.2609 30.7161 45.0646V38.3866C30.7154 38.1891 30.7684 37.995 30.8695 37.8253C30.9705 37.6555 31.1158 37.5164 31.2898 37.4228L33.6191 36.0746C33.7939 35.9755 33.9918 35.924 34.1928 35.9254C34.3941 35.9218 34.5925 35.9734 34.7665 36.0746L37.1015 37.4228C37.2747 37.5173 37.4193 37.6567 37.5202 37.8262C37.6211 37.9958 37.6746 38.1893 37.6752 38.3866V45.0646C37.6769 45.2616 37.7309 45.4547 37.8317 45.624C37.9325 45.7934 38.0765 45.9329 38.2489 46.0284L43.7278 49.1723C43.815 49.2226 43.9139 49.2491 44.0146 49.2491C44.1153 49.2491 44.2143 49.2226 44.3015 49.1723C44.3844 49.1218 44.4532 49.0511 44.5013 48.9668C44.5495 48.8826 44.5755 48.7874 44.5768 48.6904L44.5023 34.4223Z" fill="#333333"/>
<path fill-rule="evenodd" clip-rule="evenodd" d="M88.89 14.7441C88.8028 14.6937 88.7038 14.6672 88.6031 14.6672C88.5024 14.6672 88.4035 14.6937 88.3163 14.7441C88.2334 14.7946 88.1646 14.8653 88.1164 14.9495C88.0683 15.0338 88.0423 15.1289 88.0409 15.226V29.3851C88.0405 29.4529 88.0229 29.5195 87.9898 29.5787C87.9567 29.6379 87.9091 29.6877 87.8516 29.7235C87.7921 29.7572 87.7249 29.7749 87.6565 29.7749C87.5881 29.7749 87.5209 29.7572 87.4615 29.7235L85.1666 28.3925C84.9978 28.2937 84.8057 28.2416 84.6101 28.2416C84.4145 28.2416 84.2225 28.2937 84.0536 28.3925L74.8227 33.7165C74.6518 33.8152 74.5092 33.9562 74.4087 34.1261C74.3082 34.2959 74.2532 34.4888 74.249 34.6861V45.3226C74.2542 45.5189 74.3096 45.7106 74.4101 45.8794C74.5105 46.0481 74.6526 46.1883 74.8227 46.2864L84.0536 51.6333C84.2239 51.7278 84.4154 51.7773 84.6101 51.7773C84.8048 51.7773 84.9964 51.7278 85.1666 51.6333L94.3975 46.3036C94.5677 46.2055 94.7098 46.0653 94.8102 45.8966C94.9107 45.7278 94.9661 45.5361 94.9713 45.3398V18.783C94.9722 18.5839 94.9194 18.3882 94.8184 18.2165C94.7174 18.0449 94.572 17.9036 94.3975 17.8077L88.89 14.7441ZM88.0352 41.8345C88.035 41.8838 88.0216 41.9322 87.9964 41.9746C87.9712 42.0169 87.935 42.0518 87.8917 42.0754L84.7249 43.9055C84.6825 43.9281 84.6352 43.94 84.5872 43.94C84.5392 43.94 84.4919 43.9281 84.4495 43.9055L81.2769 42.0754C81.2343 42.0515 81.1989 42.0165 81.1747 41.974C81.1504 41.9316 81.1382 41.8833 81.1392 41.8345V38.18C81.1382 38.1311 81.1504 38.0828 81.1747 38.0404C81.1989 37.998 81.2343 37.9629 81.2769 37.939L84.4495 36.1089C84.491 36.0835 84.5386 36.0701 84.5872 36.0701C84.6358 36.0701 84.6834 36.0835 84.7249 36.1089L87.8917 37.939C87.935 37.9626 87.9712 37.9975 87.9964 38.0399C88.0216 38.0822 88.035 38.1306 88.0352 38.18V41.8345Z" fill="#333333"/>
<path fill-rule="evenodd" clip-rule="evenodd" d="M119.618 38.0827C119.788 37.9845 119.93 37.8444 120.03 37.6756C120.131 37.5069 120.186 37.3151 120.191 37.1188V34.5372C120.186 34.3408 120.131 34.1491 120.03 33.9804C119.93 33.8116 119.788 33.6715 119.618 33.5733L110.438 28.2493C110.265 28.1451 110.067 28.0901 109.865 28.0901C109.663 28.0901 109.464 28.1451 109.291 28.2493L100.066 33.5733C99.8958 33.6715 99.7537 33.8116 99.6532 33.9804C99.5528 34.1491 99.4973 34.3408 99.4922 34.5372V45.1909C99.4964 45.3882 99.5514 45.5811 99.6519 45.7509C99.7524 45.9207 99.895 46.0618 100.066 46.1604L109.245 51.3811C109.412 51.4757 109.601 51.5253 109.793 51.5253C109.985 51.5253 110.174 51.4757 110.341 51.3811L115.883 48.3003C115.965 48.2486 116.032 48.177 116.079 48.0923C116.125 48.0075 116.15 47.9123 116.15 47.8156C116.15 47.7188 116.125 47.6236 116.079 47.5389C116.032 47.4541 115.965 47.3825 115.883 47.3308L106.6 42.0011C106.516 41.9513 106.447 41.8809 106.397 41.7966C106.348 41.7122 106.321 41.6168 106.319 41.5191V38.1859C106.321 38.0883 106.348 37.9928 106.397 37.9085C106.447 37.8242 106.516 37.7538 106.6 37.704L109.469 36.0403C109.555 35.9863 109.654 35.9576 109.756 35.9576C109.857 35.9576 109.957 35.9863 110.043 36.0403L112.911 37.704C112.995 37.7538 113.065 37.8242 113.114 37.9085C113.163 37.9928 113.19 38.0883 113.192 38.1859V40.8135C113.194 40.9111 113.221 41.0066 113.27 41.0909C113.319 41.1752 113.389 41.2456 113.473 41.2954C113.561 41.3458 113.66 41.3723 113.76 41.3723C113.861 41.3723 113.96 41.3458 114.047 41.2954L119.618 38.0827Z" fill="#333333"/>
<path fill-rule="evenodd" clip-rule="evenodd" d="M109.756 37.5833C109.788 37.5635 109.825 37.553 109.862 37.553C109.9 37.553 109.936 37.5635 109.968 37.5833L111.741 38.6045C111.772 38.6239 111.798 38.6509 111.816 38.683C111.834 38.7151 111.844 38.7513 111.844 38.7881V40.8362C111.844 40.8731 111.834 40.9092 111.816 40.9413C111.798 40.9734 111.772 41.0004 111.741 41.0198L109.968 42.041C109.936 42.0608 109.9 42.0714 109.862 42.0714C109.825 42.0714 109.788 42.0608 109.756 42.041L107.983 41.0198C107.952 41.0004 107.926 40.9734 107.908 40.9413C107.89 40.9092 107.88 40.8731 107.88 40.8362V38.7881C107.88 38.7513 107.89 38.7151 107.908 38.683C107.926 38.6509 107.952 38.6239 107.983 38.6045L109.756 37.5833Z" fill="#679E63"/>
<path fill-rule="evenodd" clip-rule="evenodd" d="M59.9403 28.3066C59.7724 28.2083 59.5813 28.1565 59.3867 28.1565C59.1921 28.1565 59.001 28.2083 58.8331 28.3066L49.6538 33.6019C49.4818 33.6965 49.3381 33.835 49.2373 34.0034C49.1365 34.1717 49.0822 34.3638 49.0801 34.56V45.1564C49.0852 45.3527 49.1407 45.5444 49.2411 45.7132C49.3416 45.8819 49.4837 46.0221 49.6538 46.1202L58.8331 51.4155C59.001 51.5138 59.1921 51.5656 59.3867 51.5656C59.5813 51.5656 59.7724 51.5138 59.9403 51.4155L69.1196 46.1202C69.2897 46.0221 69.4318 45.8819 69.5322 45.7132C69.6327 45.5444 69.6882 45.3527 69.6933 45.1564V34.56C69.6917 34.3637 69.6377 34.1713 69.5369 34.0029C69.436 33.8344 69.2919 33.696 69.1196 33.6019L59.9403 28.3066Z" fill="url(#paint0_linear_2936_1062)"/>
<mask id="mask0_2936_1062" style="mask-type:luminance" maskUnits="userSpaceOnUse" x="49" y="28" width="21" height="24">
<path d="M59.9403 28.3064C59.7724 28.2081 59.5813 28.1562 59.3867 28.1562C59.1921 28.1562 59.001 28.2081 58.8331 28.3064L49.6538 33.6017C49.4818 33.6962 49.3381 33.8348 49.2373 34.0031C49.1365 34.1715 49.0822 34.3636 49.0801 34.5598V45.1561C49.0852 45.3524 49.1407 45.5441 49.2411 45.7129C49.3416 45.8817 49.4837 46.0218 49.6538 46.1199L58.8331 51.4152C59.001 51.5136 59.1921 51.5654 59.3867 51.5654C59.5813 51.5654 59.7724 51.5136 59.9403 51.4152L69.1196 46.1199C69.2897 46.0218 69.4318 45.8817 69.5322 45.7129C69.6327 45.5441 69.6882 45.3524 69.6933 45.1561V34.5598C69.6917 34.3634 69.6377 34.1711 69.5369 34.0026C69.436 33.8342 69.2919 33.6958 69.1196 33.6017L59.9403 28.3064Z" fill="white"/>
</mask>
<g mask="url(#mask0_2936_1062)">
<path d="M69.1307 33.6019L59.9514 28.3066C59.8633 28.2518 59.7662 28.213 59.6646 28.1919L49.3379 45.862C49.4274 45.9634 49.5319 46.0504 49.6477 46.1202L58.8671 51.4155C58.9947 51.4908 59.1363 51.5393 59.2833 51.558C59.4303 51.5768 59.5795 51.5654 59.722 51.5245L69.3774 33.7913C69.3042 33.7172 69.2212 33.6536 69.1307 33.6019Z" fill="url(#paint1_linear_2936_1062)"/>
<path d="M69.1367 46.1201C69.2701 46.0448 69.387 45.9436 69.4806 45.8224C69.5742 45.7012 69.6426 45.5625 69.6817 45.4145L59.5903 28.2033C59.3234 28.1516 59.0469 28.1964 58.81 28.3295L49.6709 33.5674L59.5444 51.5531C59.6883 51.5361 59.827 51.4892 59.9517 51.4154L69.1367 46.1201Z" fill="url(#paint2_linear_2936_1062)"/>
<path d="M69.1374 46.12L59.9581 51.4153C59.8334 51.4891 59.6947 51.536 59.5508 51.553L59.7344 51.8914L69.9406 45.9823V45.8446L69.6882 45.4143C69.6483 45.5628 69.579 45.7018 69.4844 45.8231C69.3898 45.9443 69.2718 46.0452 69.1374 46.12Z" fill="url(#paint3_linear_2936_1062)"/>
<path d="M69.1374 46.12L59.9581 51.4153C59.8334 51.4891 59.6947 51.536 59.5508 51.553L59.7344 51.8914L69.9406 45.9823V45.8446L69.6882 45.4143C69.6483 45.5628 69.579 45.7018 69.4844 45.8231C69.3898 45.9443 69.2718 46.0452 69.1374 46.12Z" fill="url(#paint4_linear_2936_1062)"/>
</g>
<defs>
<linearGradient id="paint0_linear_2936_1062" x1="63.1186" y1="32.248" x2="54.8286" y2="49.1608" gradientUnits="userSpaceOnUse">
<stop stop-color="#3F873F"/>
<stop offset="0.33" stop-color="#3F8B3D"/>
<stop offset="0.64" stop-color="#3E9637"/>
<stop offset="0.93" stop-color="#3DA92E"/>
<stop offset="1" stop-color="#3DAE2B"/>
</linearGradient>
<linearGradient id="paint1_linear_2936_1062" x1="57.9894" y1="41.1003" x2="81.2474" y2="23.9121" gradientUnits="userSpaceOnUse">
<stop offset="0.14" stop-color="#3F873F"/>
<stop offset="0.4" stop-color="#529F44"/>
<stop offset="0.71" stop-color="#63B649"/>
<stop offset="0.91" stop-color="#6ABF4B"/>
</linearGradient>
<linearGradient id="paint2_linear_2936_1062" x1="48.7759" y1="39.8552" x2="69.9915" y2="39.8552" gradientUnits="userSpaceOnUse">
<stop offset="0.09" stop-color="#6ABF4B"/>
<stop offset="0.29" stop-color="#63B649"/>
<stop offset="0.6" stop-color="#529F44"/>
<stop offset="0.86" stop-color="#3F873F"/>
</linearGradient>
<linearGradient id="paint3_linear_2936_1062" x1="48.7766" y1="48.65" x2="69.9922" y2="48.65" gradientUnits="userSpaceOnUse">
<stop offset="0.09" stop-color="#6ABF4B"/>
<stop offset="0.29" stop-color="#63B649"/>
<stop offset="0.6" stop-color="#529F44"/>
<stop offset="0.86" stop-color="#3F873F"/>
</linearGradient>
<linearGradient id="paint4_linear_2936_1062" x1="73.0845" y1="31.7487" x2="59.9983" y2="58.4374" gradientUnits="userSpaceOnUse">
<stop stop-color="#3F873F"/>
<stop offset="0.33" stop-color="#3F8B3D"/>
<stop offset="0.64" stop-color="#3E9637"/>
<stop offset="0.93" stop-color="#3DA92E"/>
<stop offset="1" stop-color="#3DAE2B"/>
</linearGradient>
</defs>
</svg>
