<svg width="62" height="60" viewBox="0 0 62 60" fill="none" xmlns="http://www.w3.org/2000/svg">
<path d="M30.7135 1.58802C30.1957 1.6141 29.6884 1.74249 29.2212 1.96565L8.85755 11.6956C8.33049 11.9473 7.86738 12.3136 7.50262 12.7672C7.13786 13.2208 6.88082 13.75 6.7506 14.3156L1.72674 36.1716C1.61073 36.6752 1.59775 37.1967 1.68856 37.7054C1.77937 38.214 1.97213 38.6994 2.25543 39.1328C2.32412 39.2388 2.398 39.3414 2.4768 39.4401L16.5717 56.965C16.9366 57.4185 17.3997 57.7846 17.9268 58.0362C18.4539 58.2878 19.0313 58.4184 19.6163 58.4183L42.2197 58.4131C42.8044 58.4135 43.3818 58.2833 43.9088 58.0322C44.4359 57.7811 44.8991 57.4154 45.2642 56.9624L59.354 39.4349C59.719 38.9812 59.9762 38.4518 60.1065 37.8859C60.2368 37.32 60.2369 36.7323 60.1066 36.1664L55.075 14.3104C54.9447 13.7448 54.6877 13.2155 54.3229 12.762C53.9582 12.3084 53.4951 11.9421 52.968 11.6904L32.6017 1.96565C32.0141 1.68493 31.3649 1.55508 30.7135 1.58802Z" fill="#326CE5"/>
<path d="M30.7027 0.00538301C30.1567 0.0339842 29.6219 0.170337 29.1297 0.406458L7.63047 10.6755C7.07409 10.9413 6.58522 11.3279 6.20017 11.8068C5.81512 12.2856 5.54379 12.8443 5.40632 13.4414L0.103796 36.5137C-0.0190404 37.0455 -0.033005 37.5964 0.0627299 38.1336C0.158465 38.6709 0.361951 39.1837 0.661135 39.6415C0.73392 39.7529 0.812145 39.8607 0.895529 39.9645L15.7744 58.466C16.1595 58.9447 16.6484 59.3311 17.2048 59.5967C17.7612 59.8623 18.3707 60.0001 18.9882 60L42.8496 59.9948C43.4668 59.9952 44.0762 59.8578 44.6326 59.5927C45.1889 59.3276 45.678 58.9416 46.0634 58.4634L60.937 39.9593C61.322 39.4805 61.5933 38.922 61.7308 38.325C61.8684 37.7281 61.8685 37.1081 61.7314 36.5111L56.421 13.4362C56.2832 12.8396 56.0117 12.2814 55.6267 11.803C55.2416 11.3246 54.753 10.9384 54.1969 10.6729L32.6977 0.403854C32.0769 0.1073 31.3909 -0.0297215 30.7027 0.00538301ZM30.7131 1.58885C31.3645 1.55591 32.0137 1.68577 32.6013 1.96649L52.9676 11.6913C53.4947 11.943 53.9578 12.3092 54.3225 12.7628C54.6873 13.2164 54.9443 13.7456 55.0746 14.3113L60.1062 36.1673C60.2365 36.7332 60.2364 37.3209 60.1061 37.8867C59.9758 38.4526 59.7186 38.9821 59.3536 39.4358L45.2638 56.9633C44.8987 57.4163 44.4355 57.7819 43.9084 58.033C43.3813 58.2842 42.804 58.4144 42.2193 58.4139L19.6159 58.4191C19.0309 58.4193 18.4535 58.2887 17.9264 58.0371C17.3993 57.7855 16.9362 57.4194 16.5713 56.9659L2.47639 39.441C2.39759 39.3422 2.32371 39.2396 2.25502 39.1337C1.97172 38.7002 1.77896 38.2148 1.68815 37.7062C1.59734 37.1976 1.61032 36.676 1.72633 36.1725L6.75019 14.3165C6.88041 13.7508 7.13745 13.2216 7.50221 12.768C7.86697 12.3144 8.33008 11.9482 8.85714 11.6965L29.2208 1.96649C29.688 1.74332 30.1953 1.61493 30.7131 1.58885Z" fill="white"/>
<path d="M30.916 9.02588C30.2429 9.02595 29.6971 9.63226 29.6972 10.3802C29.6972 10.3916 29.6995 10.4026 29.6998 10.414C29.6988 10.5156 29.6939 10.6381 29.6972 10.7265C29.7132 11.1579 29.8072 11.4881 29.8638 11.8855C29.9664 12.7361 30.0523 13.4412 29.9993 14.0966C29.9477 14.3438 29.7657 14.5698 29.6034 14.7269L29.5747 15.2425C28.8433 15.3031 28.1069 15.4141 27.3714 15.5811C24.2066 16.2997 21.4818 17.9299 19.4072 20.131C19.2726 20.0391 19.0371 19.8702 18.9671 19.8185C18.7495 19.8478 18.5295 19.915 18.2431 19.7481C17.6976 19.381 17.2008 18.8741 16.5997 18.2636C16.3243 17.9716 16.1248 17.6935 15.7975 17.412C15.7232 17.3481 15.6098 17.2616 15.5267 17.1958C15.2708 16.9919 14.9691 16.8855 14.6777 16.8755C14.303 16.8627 13.9423 17.0092 13.7062 17.3052C13.2866 17.8315 13.4209 18.636 14.0057 19.1022C14.0117 19.107 14.018 19.1106 14.024 19.1153C14.1043 19.1804 14.2027 19.2639 14.2766 19.3184C14.6239 19.5748 14.9411 19.7061 15.2871 19.9096C16.0161 20.3598 16.6204 20.7331 17.0997 21.1832C17.2869 21.3827 17.3196 21.7343 17.3446 21.8863L17.7352 22.2353C15.6439 25.3826 14.676 29.27 15.248 33.231L14.7376 33.3795C14.603 33.5532 14.4129 33.8266 14.2141 33.9082C13.5869 34.1057 12.8811 34.1782 12.029 34.2676C11.6289 34.3008 11.2838 34.281 10.8596 34.3613C10.7663 34.379 10.6362 34.4129 10.5341 34.4369C10.5305 34.4376 10.5272 34.4387 10.5237 34.4395C10.5181 34.4408 10.5108 34.4435 10.5054 34.4447C9.78703 34.6183 9.32553 35.2786 9.4741 35.9292C9.62271 36.5799 10.3244 36.9757 11.0471 36.8199C11.0524 36.8187 11.0599 36.8185 11.0654 36.8173C11.0735 36.8154 11.0807 36.8114 11.0888 36.8095C11.1896 36.7873 11.3158 36.7627 11.4039 36.7391C11.8209 36.6275 12.1229 36.4635 12.4978 36.3198C13.3043 36.0306 13.9722 35.7889 14.623 35.6948C14.8948 35.6735 15.1811 35.8625 15.3235 35.9422L15.8548 35.8511C17.0775 39.6416 19.6397 42.7054 22.8841 44.6278L22.6627 45.1591C22.7425 45.3654 22.8305 45.6446 22.7711 45.8483C22.5345 46.4618 22.1293 47.1093 21.6678 47.8312C21.4444 48.1647 21.2157 48.4236 21.0141 48.8053C20.9659 48.8966 20.9044 49.0369 20.8579 49.1334C20.5446 49.8037 20.7744 50.5756 21.3761 50.8653C21.9817 51.1568 22.7333 50.8494 23.0586 50.1778C23.0591 50.1768 23.0607 50.1761 23.0612 50.1752C23.0615 50.1744 23.0608 50.1733 23.0612 50.1726C23.1075 50.0774 23.1731 49.9522 23.2122 49.8627C23.3849 49.467 23.4424 49.128 23.5638 48.7454C23.8863 47.9353 24.0635 47.0853 24.5074 46.5557C24.629 46.4106 24.8272 46.3549 25.0327 46.2999L25.3088 45.7998C28.1372 46.8855 31.3031 47.1768 34.4658 46.4587C35.1873 46.2949 35.8838 46.0829 36.5571 45.8285C36.6347 45.9661 36.7789 46.2306 36.8175 46.2972C37.0264 46.3652 37.2543 46.4003 37.44 46.6749C37.7721 47.2423 37.9993 47.9137 38.276 48.7245C38.3974 49.1072 38.4575 49.4462 38.6302 49.8418C38.6696 49.932 38.7349 50.0589 38.7812 50.1543C39.1058 50.8281 39.8598 51.1367 40.4663 50.8445C41.068 50.5547 41.298 49.7828 40.9846 49.1126C40.938 49.0161 40.8739 48.8758 40.8257 48.7844C40.624 48.4028 40.3954 48.1465 40.172 47.813C39.7105 47.0911 39.3278 46.4914 39.0912 45.8779C38.9922 45.5615 39.1079 45.3648 39.1849 45.1591C39.1388 45.1062 39.04 44.8074 38.9818 44.6669C42.3535 42.6761 44.8405 39.498 46.0084 35.8276C46.1661 35.8524 46.4402 35.9009 46.5293 35.9188C46.7126 35.7979 46.8811 35.6401 47.2116 35.6661C47.8624 35.7603 48.5303 36.002 49.3368 36.2912C49.7117 36.4348 50.0137 36.6015 50.4307 36.7131C50.5188 36.7367 50.645 36.7587 50.7458 36.7808C50.7539 36.7828 50.7611 36.7868 50.7692 36.7886C50.7747 36.7899 50.7822 36.79 50.7875 36.7912C51.5102 36.9468 52.2121 36.5513 52.3605 35.9005C52.5089 35.2499 52.0476 34.5894 51.3292 34.416C51.2247 34.3923 51.0765 34.3519 50.975 34.3327C50.5508 34.2524 50.2057 34.2722 49.8056 34.2389C48.9535 34.1496 48.2477 34.077 47.6205 33.8795C47.3648 33.7803 47.1829 33.4761 47.0944 33.3508L46.6022 33.2076C46.8574 31.3612 46.7886 29.4397 46.347 27.517C45.9012 25.5765 45.1135 23.8016 44.0629 22.2379C44.1892 22.1231 44.4276 21.912 44.4953 21.8499C44.515 21.6312 44.498 21.4019 44.7244 21.1597C45.2038 20.7096 45.8081 20.3364 46.5371 19.8862C46.8831 19.6826 47.2029 19.5514 47.5502 19.295C47.6287 19.237 47.736 19.1452 47.8185 19.0788C48.4031 18.6124 48.5377 17.808 48.118 17.2818C47.6982 16.7556 46.8848 16.706 46.3001 17.1724C46.2169 17.2383 46.104 17.3243 46.0292 17.3886C45.702 17.6701 45.4999 17.9481 45.2245 18.2402C44.6234 18.8507 44.1266 19.3601 43.5811 19.7273C43.3448 19.8649 42.9986 19.8173 42.8415 19.808L42.3779 20.1388C39.7344 17.3668 36.1353 15.5946 32.2599 15.2504C32.249 15.088 32.2348 14.7944 32.2312 14.706C32.0726 14.5542 31.8809 14.4246 31.8328 14.0966C31.7797 13.4412 31.8682 12.7361 31.9708 11.8855C32.0274 11.4881 32.1214 11.1579 32.1375 10.7265C32.1411 10.6285 32.1353 10.4862 32.1349 10.3802C32.1348 9.63226 31.5891 9.02581 30.916 9.02588H30.916ZM29.3898 18.4798L29.0278 24.8736L29.0018 24.8866C28.9775 25.4586 28.5067 25.9153 27.9288 25.9153C27.692 25.9153 27.4735 25.8393 27.2959 25.7096L27.2855 25.7148L22.0429 21.9983C23.6541 20.4139 25.7151 19.2431 28.0902 18.7038C28.5241 18.6053 28.9578 18.5322 29.3898 18.4798ZM32.4448 18.4798C35.2178 18.8209 37.7823 20.0765 39.7475 22.0009L34.5387 25.6939L34.5205 25.6861C34.0581 26.0238 33.4068 25.94 33.0464 25.4882C32.8988 25.3031 32.8213 25.0855 32.812 24.8658L32.8068 24.8632L32.4448 18.4798ZM20.1417 24.3865L24.9285 28.6682L24.9233 28.6942C25.3554 29.0698 25.4191 29.7216 25.0587 30.1735C24.9111 30.3586 24.7135 30.4827 24.5014 30.5407L24.4962 30.5615L18.3603 32.3325C18.048 29.4769 18.721 26.7009 20.1417 24.3865ZM41.6565 24.3891C42.3677 25.542 42.9063 26.8295 43.2269 28.2254C43.5437 29.6045 43.6232 30.9812 43.4926 32.3117L37.3254 30.5355L37.3202 30.5095C36.7679 30.3585 36.4285 29.7968 36.5571 29.2333C36.6098 29.0025 36.7323 28.8072 36.8983 28.6629L36.8957 28.6499L41.6565 24.3891H41.6565ZM29.9342 28.9989H31.8953L33.1141 30.5225L32.6766 32.4237L30.916 33.2701L29.1502 32.4211L28.7127 30.5199L29.9342 28.9989ZM36.2211 34.2129C36.3045 34.2087 36.3875 34.2162 36.4686 34.2311L36.479 34.2181L42.8259 35.2911C41.897 37.9007 40.1196 40.1615 37.7447 41.6744L35.281 35.7234L35.2888 35.713C35.0624 35.1871 35.2889 34.5705 35.8096 34.3197C35.943 34.2555 36.0822 34.2199 36.2211 34.2129H36.2211ZM25.5614 34.2389C26.0457 34.2457 26.4802 34.5819 26.5927 35.0749C26.6454 35.3058 26.6198 35.5345 26.5328 35.7365L26.5511 35.7599L24.1134 41.651C21.8342 40.1885 20.0189 37.9987 19.0478 35.3119L25.34 34.2441L25.3504 34.2572C25.4208 34.2442 25.4922 34.238 25.5614 34.2389ZM30.8769 36.8199C31.0457 36.8137 31.2169 36.8483 31.3796 36.9267C31.5929 37.0294 31.7577 37.1911 31.8614 37.385H31.8848L34.9867 42.9897C34.5841 43.1246 34.1703 43.2399 33.747 43.336C31.3747 43.8747 29.01 43.7115 26.8688 42.9819L29.9628 37.3876H29.968C30.1537 37.0406 30.5058 36.8335 30.8769 36.8199Z" fill="white"/>
</svg>
