<svg width="277" height="133" viewBox="0 0 277 133" fill="none" xmlns="http://www.w3.org/2000/svg">
<path d="M166.415 88.099L152.947 45.7576H164.863L172.931 77.0856H173.366L181.309 45.7576H192.606L179.322 88.099H166.41H166.415Z" fill="#333333"/>
<path d="M203.136 88.5958C196.651 88.5958 192.18 84.844 192.18 78.5461C192.18 72.2482 196.368 68.6533 204.096 68.6533H211.76V65.8921C211.76 63.1937 210.083 61.7055 207.293 61.7055C204.504 61.7055 202.795 63.2564 202.67 65.5201H193.391C193.579 60.1232 196.898 54.4797 207.419 54.4797C215.361 54.4797 221.568 57.8281 221.568 66.0176V88.1027H212.226V84.1313H211.791C210.675 86.4263 208.006 88.5958 203.131 88.5958H203.136ZM211.765 77.3045V74.0457H206.737C203.665 74.0457 201.988 75.5339 201.988 77.7662C201.988 80.3705 204.221 81.6749 206.549 81.6749C209.374 81.6749 211.76 79.9357 211.76 77.3L211.765 77.3045Z" fill="#333333"/>
<path d="M228.744 43.5298H238.705V88.1035H228.744V43.5298Z" fill="#333333"/>
<path d="M266.604 59.9984H267.039V43.5298H276.999V88.1035H267.101V82.8948H266.698C265.272 86.306 261.827 88.4486 257.262 88.4486C249.535 88.4486 244.942 82.6797 244.942 72.8451V70.1781C244.942 60.4377 249.629 54.606 257.262 54.606C261.792 54.606 265.236 56.7755 266.604 60.0029V59.9984ZM255.186 70.4829V72.5941C255.186 78.0852 257.67 80.7522 261.052 80.7522C264.653 80.7522 267.07 77.991 267.07 72.6255V70.4874C267.07 65.2474 264.617 62.3293 261.02 62.3293C257.67 62.3293 255.186 65.0277 255.186 70.4874V70.4829Z" fill="#333333"/>
<path d="M58.7098 30.0684L61.7684 35.2277L63.3067 37.7917L64.8719 40.3557C65.9168 42.0545 66.9618 43.7355 68.0829 45.2998C69.1907 46.8687 70.424 48.3345 71.7739 49.5044C72.7067 50.2799 73.9176 50.8536 75.2137 51.2481C75.6397 51.3557 76.0658 51.4408 76.4918 51.4991C77.3529 51.6246 78.2498 51.6425 79.0033 51.526C80.7882 51.2167 82.6 50.5981 84.3581 49.8271C86.1295 49.0696 87.8876 48.1731 89.668 47.2542C91.4395 46.3353 93.2109 45.4119 94.9734 44.4706L100.261 41.6332L110.831 35.927L113.993 34.2102L94.507 0L81.0438 23.6316L67.5851 0L54.5166 22.9458L58.7143 30.0684H58.7098Z" fill="#333333"/>
<path d="M0 99.4027L3.32319 97.3856C6.74953 95.3057 10.2073 93.2752 13.6471 91.2222C17.0913 89.1692 20.558 87.1611 24.0068 85.1216L34.3755 79.0478L44.7263 72.9561L49.8882 69.8991L52.458 68.3616L55.0233 66.7972C56.723 65.7528 58.4048 64.7084 59.9699 63.5878C61.5396 62.4806 63.0061 61.2479 64.1766 59.8987C65.1364 58.7467 65.7822 57.1689 66.1679 55.5283C66.2217 55.1294 66.2576 54.7304 66.2755 54.336C66.28 53.9908 66.2845 53.6188 66.2576 53.3274L66.2441 53.0943C66.2351 53.0047 66.2172 52.8971 66.2037 52.7985L66.1589 52.4982L66.1454 52.4219V52.404L66.114 52.2695C65.9705 51.5389 65.7777 50.8083 65.549 50.0821C65.087 48.6298 64.4771 47.1999 63.8044 45.7655C63.1317 44.3401 62.3872 42.8967 61.6428 41.4533C60.9028 40.01 60.1538 38.5756 59.4004 37.1412L57.1804 32.9411L56.3238 31.435C55.3372 29.6913 54.3685 27.9297 53.4043 26.1771L50.5116 20.9057L47.6324 15.6298L44.7891 10.336C43.1746 7.31037 41.5511 4.28918 39.9456 1.25903L9.80813 54.1701H22.325L0 99.4027Z" fill="#333333"/>
<path d="M99.7543 107.678L96.6912 102.506L93.6595 97.315C91.6414 93.85 89.6277 90.3851 87.6455 86.8977L86.9189 85.6023L84.3447 81.3171C83.5061 79.932 82.6629 78.5514 81.8063 77.1663C80.9587 75.7902 80.1066 74.4051 79.2321 73.0917C78.3531 71.7739 77.4427 70.5143 76.4381 69.3668C76.187 69.0799 75.9268 68.8065 75.6667 68.533L75.2855 68.152C75.1555 68.022 74.994 67.8786 74.8505 67.7441C74.3482 67.2914 73.7921 66.8969 73.1777 66.5518C72.5453 66.2022 71.8681 65.9063 71.1596 65.6598C70.442 65.5074 69.7244 65.4177 69.0114 65.3908C68.6661 65.3864 68.2938 65.3819 68.0023 65.4088L67.7691 65.4222C67.6794 65.4312 67.5718 65.4491 67.4731 65.4626L67.1726 65.5074L67.0964 65.5163H67.0829L66.9484 65.5477C66.2174 65.6912 65.4864 65.8839 64.7598 66.1125C63.3068 66.5742 61.8762 67.1838 60.441 67.8562C59.0149 68.5286 57.5708 69.2727 56.1267 70.0167C54.6826 70.7564 53.2475 71.5049 51.8124 72.258L47.6147 74.4768L46.1078 75.333C44.3632 76.3191 42.6007 77.2828 40.8472 78.251L35.5731 81.1422L30.2946 84.02L24.9981 86.8619C21.4597 88.7445 17.9347 90.6496 14.3827 92.5143C10.8308 94.3745 7.29686 96.2616 3.74046 98.1084L0.112305 100.009H31.7566V132.242C31.7566 132.664 32.0975 133 32.5146 133H48.8031C49.2247 133 49.5611 132.659 49.5611 132.242V100.009H58.6785V132.242C58.6785 132.664 59.0194 133 59.4365 133H75.725C76.1466 133 76.4829 132.659 76.4829 132.242V100.009H85.6004V132.242C85.6004 132.664 85.9413 133 86.3583 133H102.647C103.068 133 103.405 132.659 103.405 132.242V113.815C102.185 111.771 100.97 109.722 99.7498 107.678H99.7543Z" fill="#333333"/>
<path d="M125.362 54.1701L115.128 36.2043L112.011 38.0242C108.544 40.0413 105.078 42.054 101.588 44.0352L100.292 44.7614L96.0094 47.3343C94.6236 48.1725 93.2423 49.0152 91.8566 49.8714C90.4797 50.7186 89.0939 51.5703 87.7799 52.4443C86.4614 53.3229 85.2012 54.2328 84.0531 55.2369C83.7661 55.4879 83.4925 55.7479 83.2189 56.0079L82.8377 56.3889C82.7077 56.5189 82.5642 56.6803 82.4296 56.8237C81.9767 57.3257 81.582 57.8816 81.2367 58.4957C81.0304 58.8677 80.851 59.2532 80.6806 59.6522C80.4563 60.3649 80.2814 61.091 80.1783 61.8082C80.0527 62.6689 80.0348 63.5653 80.1514 64.3184C80.4608 66.1069 81.0797 67.9133 81.8511 69.6705C82.609 71.441 83.506 73.1982 84.4253 74.9777C85.3447 76.7483 86.2686 78.5189 87.2104 80.2805L90.0492 85.5653L95.7583 96.1305L101.494 106.687C102.131 107.866 102.772 109.044 103.414 110.223V100.003H135.471L112.85 54.1656H125.367L125.362 54.1701Z" fill="#333333"/>
</svg>
