<svg width="113" height="42" viewBox="0 0 113 42" fill="none" xmlns="http://www.w3.org/2000/svg">
<path d="M9.19738 12.722C8.98047 12.722 8.92624 12.6136 9.0347 12.4509L10.1735 10.9867C10.282 10.824 10.5531 10.7156 10.77 10.7156H30.1297C30.3466 10.7156 30.4009 10.8783 30.2924 11.0409L29.3705 12.4509C29.2621 12.6136 28.9909 12.7763 28.8282 12.7763L9.19738 12.722Z" fill="#2DBCAF"/>
<path d="M1.00891 17.7113C0.791993 17.7113 0.737763 17.6028 0.846221 17.4402L1.98503 15.976C2.09348 15.8133 2.36463 15.7048 2.58154 15.7048H27.3099C27.5268 15.7048 27.6353 15.8675 27.581 16.0302L27.1472 17.3317C27.093 17.5486 26.8761 17.6571 26.6592 17.6571L1.00891 17.7113Z" fill="#2DBCAF"/>
<path d="M14.1339 22.7006C13.917 22.7006 13.8628 22.5379 13.9712 22.3752L14.7304 21.0195C14.8389 20.8568 15.0558 20.6941 15.2727 20.6941H26.1185C26.3354 20.6941 26.4439 20.8568 26.4439 21.0737L26.3354 22.3752C26.3354 22.5921 26.1185 22.7548 25.9558 22.7548L14.1339 22.7006Z" fill="#2DBCAF"/>
<path d="M70.4235 11.7462C67.0071 12.6138 64.6752 13.2646 61.313 14.1322C60.4996 14.3491 60.4454 14.4034 59.7404 13.5899C58.927 12.668 58.3305 12.0715 57.1916 11.5292C53.7752 9.84814 50.4673 10.3362 47.3762 12.3427C43.6887 14.7287 41.7906 18.2536 41.8449 22.6462C41.8991 26.9845 44.8817 30.5636 49.1658 31.1601C52.8533 31.6481 55.9444 30.3467 58.3847 27.581C58.8727 26.9845 59.3066 26.3337 59.8489 25.5745C57.8966 25.5745 55.4563 25.5745 49.3827 25.5745C48.2439 25.5745 47.9727 24.8695 48.3523 23.9476C49.0573 22.2666 50.3588 19.4467 51.118 18.0367C51.2807 17.7113 51.6603 17.169 52.4737 17.169C55.2394 17.169 65.4344 17.169 72.213 17.169C72.1046 18.6332 72.1046 20.0974 71.8877 21.5616C71.2912 25.4661 69.827 29.0452 67.4409 32.1904C63.5364 37.3422 58.4389 40.5417 51.9857 41.4093C46.6712 42.1143 41.7364 41.084 37.3981 37.8302C33.3852 34.7934 31.1076 30.7805 30.511 25.7914C29.8061 19.8805 31.5414 14.5661 35.1205 9.90237C38.9707 4.85909 44.0683 1.65958 50.3046 0.520776C55.4021 -0.401115 60.2827 0.195403 64.6752 3.17799C67.5494 5.076 69.6101 7.67899 70.9658 10.8243C71.2912 11.3123 71.0742 11.5835 70.4235 11.7462Z" fill="#2DBCAF"/>
<path d="M88.3734 41.7355C83.4386 41.627 78.9376 40.2171 75.1415 36.9634C71.942 34.1977 69.9356 30.6728 69.2848 26.4972C68.3087 20.3693 69.9898 14.9464 73.6774 10.1201C77.6361 4.9141 82.4082 2.20265 88.8614 1.06384C94.3928 0.0877241 99.5988 0.630012 104.317 3.82952C108.601 6.75787 111.258 10.7166 111.963 15.9226C112.885 23.2435 110.77 29.2086 105.727 34.3061C102.148 37.9395 97.755 40.2171 92.7117 41.2474C91.2475 41.5186 89.7833 41.5728 88.3734 41.7355ZM101.28 19.827C101.226 19.1221 101.226 18.5798 101.117 18.0375C100.141 12.6688 95.2062 9.63201 90.0545 10.825C85.0112 11.9638 81.7575 15.1634 80.5644 20.2609C79.5883 24.4907 81.649 28.7748 85.5535 30.5101C88.5361 31.8116 91.5187 31.6489 94.3928 30.1847C98.6769 27.9614 101.009 24.4907 101.28 19.827Z" fill="#2DBCAF"/>
</svg>
