<svg width="49" height="72" viewBox="0 0 49 72" fill="none" xmlns="http://www.w3.org/2000/svg">
<path d="M14.2602 47.3308C14.1372 47.3308 14.0143 47.3717 13.9323 47.3717C13.0718 47.3717 12.2112 47.3717 11.3507 47.3717C10.3262 47.3717 9.34269 47.0849 8.52312 46.4292C8.03137 46.0194 7.66256 45.5277 7.33473 44.954C6.92494 44.1754 6.67906 43.3558 6.47417 42.5362C6.18732 41.3069 5.98242 40.0775 5.98242 38.8071C5.98242 37.9056 6.0234 36.9631 6.18732 36.0615C6.31025 35.3649 6.47417 34.6683 6.63808 33.9716C6.96592 32.7422 7.62158 31.6768 8.64605 30.8982C9.54759 30.2016 10.5721 29.8737 11.6785 29.8327C11.8834 29.8327 12.0473 29.8327 12.2522 29.8327C16.0223 29.8327 19.8333 29.8327 23.6034 29.8327C23.7263 29.8327 23.8492 29.8327 24.0132 29.8327C24.0541 29.4639 24.0541 29.1361 24.0132 28.7673C23.5214 28.7673 23.0297 28.7673 22.5379 28.7673C22.0462 28.7673 21.5544 28.7673 21.1037 28.7673C20.6119 28.7673 20.1202 28.7673 19.6694 28.7673C19.1776 28.7673 18.7269 28.7673 18.2351 28.7673C17.7434 28.7673 17.2516 28.7673 16.8009 28.7673C16.3091 28.7673 15.8583 28.7673 15.3256 28.7673C15.3256 28.6444 15.2846 28.5624 15.2846 28.4804C15.2846 27.333 15.2846 26.1856 15.2846 25.0382C15.2846 24.6694 15.3256 24.3006 15.4076 23.9318C15.6125 22.9483 16.1452 22.2107 17.0058 21.7599C17.7024 21.3911 18.481 21.1452 19.2596 21.0223C21.3495 20.6125 23.4395 20.5305 25.5704 20.6535C26.5948 20.6944 27.6603 20.8174 28.6848 21.0223C29.9551 21.3091 31.0615 21.9238 31.8811 22.9483C32.4548 23.6859 32.7827 24.5055 32.7827 25.448C32.7827 28.1936 32.7827 30.9802 32.7827 33.7257C32.7827 35.9386 31.1435 37.7827 28.9306 38.0695C28.7257 38.1105 28.5208 38.1105 28.275 38.1105C25.4064 38.1105 22.5789 38.1105 19.7104 38.1105C17.2516 38.1105 15.0798 39.7497 14.3831 42.1264C14.2602 42.6182 14.1782 43.1099 14.1782 43.6017C14.1782 44.7491 14.1782 45.8965 14.1782 47.0849C14.2602 47.0849 14.2602 47.1668 14.2602 47.3308ZM17.5385 24.8333C17.5385 25.7348 18.2761 26.4725 19.1776 26.4725C20.0792 26.4725 20.8168 25.7348 20.8168 24.8333C20.8168 23.8908 20.1202 23.1942 19.1776 23.1942C18.2351 23.1942 17.5385 23.8908 17.5385 24.8333Z" fill="url(#paint0_linear_2936_1088)"/>
<path d="M31.0212 47.2896C28.8493 47.2896 26.7184 47.2896 24.5465 47.2896C24.0958 47.2896 24.0958 47.2896 24.0958 47.7403C24.0958 47.9042 24.0958 48.0682 24.0958 48.2321C24.0958 48.355 24.1777 48.437 24.3007 48.437C24.3826 48.437 24.5056 48.437 24.5875 48.437C27.1692 48.437 29.7509 48.437 32.3325 48.437C32.9063 48.437 32.8653 48.396 32.8653 48.9697C32.8653 49.8712 32.8653 50.7728 32.8653 51.6743C32.8653 52.6988 32.4965 53.6003 31.7588 54.3379C31.2261 54.8707 30.6114 55.2395 29.9558 55.5263C28.9723 55.9771 27.9068 56.223 26.8414 56.4688C25.571 56.7147 24.3007 56.7967 23.0303 56.6737C21.4321 56.5508 19.8749 56.223 18.3997 55.5673C17.6211 55.2395 16.9245 54.7477 16.3508 54.0921C15.777 53.4364 15.4492 52.7398 15.4492 51.8792C15.4492 49.0107 15.4492 46.1421 15.4492 43.2736C15.4492 42.2082 15.859 41.3066 16.5556 40.569C17.2113 39.8314 17.9899 39.3806 18.9324 39.2167C19.2193 39.1757 19.5471 39.1347 19.834 39.1347C22.7025 39.1347 25.53 39.0938 28.3986 39.1347C30.9393 39.1757 33.398 37.2087 33.8488 34.4631C33.8897 34.1763 33.9307 33.8485 33.9307 33.5616C33.9307 32.4552 33.9307 31.3487 33.9307 30.2423C33.9307 30.1604 33.9307 30.0784 33.9307 29.9964C33.9307 29.8735 34.0127 29.8325 34.0946 29.8325C34.1356 29.8325 34.1766 29.8325 34.2586 29.8325C35.283 29.8325 36.3485 29.8325 37.373 29.8325C38.3565 29.8325 39.176 30.2013 39.8727 30.857C40.3644 31.3078 40.6923 31.8815 40.9791 32.4962C41.3889 33.4387 41.5938 34.3812 41.7987 35.3647C42.0446 36.594 42.2085 37.8234 42.1675 39.0938C42.1675 40.2412 42.0036 41.3476 41.6757 42.4131C41.3479 43.4375 41.0201 44.462 40.4874 45.3635C40.2415 45.7733 39.9546 46.1831 39.5858 46.47C38.9711 46.9617 38.2745 47.2486 37.4959 47.2486C35.5289 47.2486 33.5209 47.2486 31.5539 47.2486C31.3491 47.2896 31.1851 47.2896 31.0212 47.2896ZM30.6524 52.289C30.6934 51.3874 29.9558 50.6088 29.0542 50.5679C28.1527 50.5269 27.3331 51.2645 27.3331 52.207C27.3331 53.1086 27.9478 53.8872 28.9723 53.9281C29.9148 53.9691 30.6114 53.2315 30.6524 52.289Z" fill="url(#paint1_linear_2936_1088)"/>
<path d="M1.47524 13.318C1.47524 13.9327 1.47524 14.5064 1.47524 15.0392C1.47524 15.6129 1.47524 16.1456 1.47524 16.7193C1.47524 17.293 1.47524 17.8257 1.47524 18.3994C1.3523 18.3584 1.27034 18.3584 1.18839 18.3175C0.860555 18.1945 0.573705 18.1126 0.245873 17.9896C-6.35059e-07 17.9077 0 17.9077 0 17.6208C0 17.5798 0 17.5389 0 17.4569C0 13.8917 0 10.3266 0 6.7614C0 6.47455 0.081956 6.22868 0.32783 6.06476C0.532724 5.94182 0.696641 5.77791 0.901536 5.65497C2.04895 4.99931 3.27831 4.79441 4.63062 4.91735C5.4502 4.99931 6.10586 5.4091 6.59761 6.06476C7.04838 6.67945 7.33523 7.33511 7.45817 8.11371C7.66306 9.17916 7.66306 10.2856 7.37621 11.351C7.17132 12.0067 6.84348 12.5804 6.39272 13.1131C5.81901 13.7278 5.08139 14.0147 4.26181 14.0557C3.40125 14.0966 2.62265 13.8917 1.88503 13.482C1.72112 13.482 1.63916 13.441 1.47524 13.318ZM1.47524 9.46602C1.47524 10.3266 1.47524 11.1462 1.47524 12.0067C1.47524 12.0067 1.47524 12.0067 1.47524 12.0477C1.47524 12.1706 1.47524 12.2936 1.63916 12.3755C2.17188 12.7034 2.70461 12.9492 3.31929 13.0312C4.17985 13.1541 5.08139 12.8673 5.53216 11.8018C5.61412 11.5969 5.69607 11.351 5.73705 11.1052C5.94195 10.0807 5.94195 9.01525 5.73705 7.99077C5.6551 7.58098 5.53216 7.17119 5.32726 6.80238C4.99943 6.26966 4.54866 5.9828 3.97496 5.94182C3.19636 5.85987 2.45874 6.06476 1.76209 6.43357C1.5572 6.55651 1.47524 6.67945 1.47524 6.92532C1.47524 7.78588 1.47524 8.60546 1.47524 9.46602Z" fill="#646464"/>
<path d="M10.6138 4.91748C10.6138 5.12238 10.6138 5.24531 10.6138 5.36825C10.6138 7.17132 10.6138 9.01538 10.6138 10.8184C10.6138 11.0233 10.6138 11.1873 10.6548 11.3922C10.7368 12.1298 11.1875 12.6215 11.8842 12.8674C12.4579 13.0723 13.0316 13.0723 13.6053 12.9084C14.0561 12.7854 14.4249 12.5805 14.7937 12.3756C14.9166 12.2937 14.9576 12.2117 14.9576 12.0888C14.9576 12.0068 14.9576 11.9249 14.9576 11.8429C14.9576 9.753 14.9576 7.66307 14.9576 5.61412C14.9576 5.49119 14.9576 5.36825 14.9576 5.20433C15.4494 5.12238 15.9001 5.16336 16.3919 5.16336C16.3919 5.28629 16.4329 5.36825 16.4329 5.45021C16.4329 8.27775 16.4329 11.1463 16.4329 13.9738C16.4329 14.5475 16.3509 15.1212 16.228 15.6949C16.064 16.5145 15.6133 17.0882 14.9166 17.498C14.261 17.9078 13.5233 18.1537 12.7447 18.2766C12.4579 18.3176 12.171 18.3586 11.8842 18.3996C11.7203 18.3996 11.6383 18.3586 11.5973 18.1947C11.5564 17.9488 11.4744 17.7439 11.4334 17.457C11.5564 17.4161 11.6383 17.4161 11.7203 17.3751C12.1301 17.2931 12.5399 17.2521 12.9496 17.1292C13.2365 17.0472 13.5233 16.9653 13.7692 16.8014C14.3839 16.5145 14.7527 16.0228 14.8757 15.3261C14.9986 14.6705 14.9986 14.0558 14.9576 13.3591C14.8347 13.4001 14.7117 13.4411 14.6298 13.4821C13.7282 13.8509 12.7857 14.0148 11.8022 13.9738C10.9417 13.9738 10.2041 13.605 9.63035 12.9903C9.22056 12.5805 9.05664 12.0478 9.05664 11.4741C9.05664 10.6545 9.05664 9.83496 9.05664 8.9744C9.05664 7.86797 9.05664 6.76153 9.05664 5.69608C9.05664 5.40923 9.05664 5.36825 9.34349 5.28629C9.79426 5.20433 10.1631 5.0814 10.6138 4.91748Z" fill="#646464"/>
<path d="M23.8496 13.8919C23.8496 13.728 23.8496 13.646 23.8496 13.5231C23.8496 9.26124 23.8496 5.04041 23.8496 0.778601C23.8496 0.696643 23.8496 0.614685 23.8496 0.532727C23.8496 0.491748 23.8906 0.40979 23.9316 0.40979C24.3823 0.245874 24.7921 0.122937 25.2839 0C25.2839 0.163916 25.3249 0.286853 25.3249 0.40979C25.3249 2.17188 25.3249 3.93398 25.3249 5.6551C25.3249 5.77803 25.3249 5.85999 25.3658 6.02391C25.4888 5.94195 25.6117 5.90097 25.6937 5.81901C26.5542 5.28629 27.4558 5.04041 28.4393 5.04041C29.8735 5.04041 30.7751 6.14684 30.939 7.17132C30.9799 7.37621 30.9799 7.58111 30.9799 7.786C30.9799 9.67103 30.9799 11.5561 30.9799 13.4411C30.9799 13.564 30.9799 13.646 30.9799 13.7689C30.4882 13.8099 30.0374 13.8099 29.5047 13.7689C29.5047 13.605 29.5047 13.4821 29.5047 13.3591C29.5047 11.72 29.5047 10.0808 29.5047 8.44167C29.5047 8.11383 29.4637 7.74502 29.3818 7.41719C29.3408 7.17132 29.2179 6.96642 29.0949 6.76153C28.7671 6.18782 28.1934 5.90097 27.4967 6.02391C26.923 6.10586 26.3903 6.35174 25.8986 6.67957C25.2839 7.04838 25.2839 7.04838 25.2839 7.74502C25.2839 9.58908 25.2839 11.4331 25.2839 13.2772C25.2839 13.8919 25.3658 13.8099 24.7511 13.8099C24.5463 13.8099 24.3414 13.8099 24.1365 13.8099C24.0955 13.8919 23.9725 13.8919 23.8496 13.8919Z" fill="#646464"/>
<path d="M32.291 9.50701C32.291 8.27764 32.5779 7.25317 33.3155 6.35163C34.0121 5.45009 34.9546 5.0403 36.1021 4.95834C38.6018 4.83541 39.9951 6.72044 40.2409 8.48253C40.3639 9.42505 40.3229 10.3676 40.036 11.2691C39.8311 11.8428 39.5853 12.3346 39.1755 12.7853C38.3149 13.8098 37.2085 14.1376 35.8972 14.0557C34.0941 13.8918 33.1106 12.7853 32.5369 11.1871C32.332 10.6544 32.291 10.0807 32.291 9.50701ZM38.6428 9.50701C38.6428 9.30211 38.6428 9.09722 38.6428 8.85135C38.6018 8.23666 38.4379 7.62198 38.11 7.04827C37.6593 6.31065 37.0036 5.90086 36.184 5.94184C35.2825 5.98282 34.5858 6.43359 34.217 7.25317C34.1351 7.41708 34.0531 7.62198 34.0121 7.82687C33.7663 8.97428 33.7663 10.0807 34.0941 11.1871C34.217 11.5969 34.3809 11.9657 34.6268 12.2936C35.4464 13.441 37.2495 13.2771 37.9461 12.2936C38.151 12.0067 38.3149 11.6789 38.3969 11.3511C38.6018 10.7774 38.6837 10.1217 38.6428 9.50701Z" fill="#646464"/>
<path d="M43.069 13.8507C42.987 13.8507 42.946 13.8917 42.8641 13.8917C42.4952 13.8917 42.1674 13.8917 41.7986 13.8917C41.5937 13.8917 41.5937 13.8507 41.5527 13.6868C41.5527 13.6049 41.5527 13.5639 41.5527 13.4819C41.5527 11.2281 41.5527 9.01523 41.5527 6.76139C41.5527 6.47453 41.6347 6.31062 41.8806 6.1467C42.8641 5.49104 43.9295 5.08125 45.1179 4.95831C45.6916 4.91733 46.2243 4.91733 46.798 5.08125C47.2488 5.20419 47.6586 5.40908 47.9864 5.73691C48.4372 6.1467 48.6421 6.63845 48.6421 7.21216C48.6421 9.34306 48.6421 11.5149 48.6421 13.6458C48.6421 13.7278 48.6421 13.7688 48.6421 13.8917C48.1913 13.9737 47.6996 13.9327 47.2078 13.9327C47.2078 13.7688 47.1668 13.6458 47.1668 13.5229C47.1668 11.6789 47.1668 9.87579 47.1668 8.03173C47.1668 7.78586 47.1259 7.53999 47.0849 7.33509C46.88 6.55649 46.2653 6.06474 45.4457 5.98279C44.6671 5.90083 43.9705 6.06474 43.3148 6.47453C43.1099 6.59747 43.069 6.72041 43.069 6.9253C43.069 9.13817 43.069 11.31 43.069 13.5229C43.069 13.6049 43.069 13.7278 43.069 13.8507Z" fill="#646464"/>
<path d="M22.5382 61.3455C22.7841 61.4274 22.989 61.5094 23.2348 61.5913C23.2348 61.7143 23.1939 61.7962 23.1939 61.8782C22.6202 63.9271 22.0464 65.9351 21.4727 67.984C21.4318 68.1889 21.3088 68.3119 21.1039 68.3529C20.899 68.3938 20.6532 68.5168 20.4073 68.5987C19.8336 66.7957 19.2189 65.0336 18.6452 63.2715C18.6042 63.2715 18.6042 63.2715 18.5632 63.2715C18.5223 63.3944 18.4813 63.5173 18.4403 63.6403C18.0305 65.0745 17.6207 66.5088 17.2109 67.9431C17.129 68.1889 17.047 68.3529 16.7602 68.3938C16.5553 68.4348 16.3504 68.5168 16.1455 68.5987C15.4079 66.3039 14.6702 64.0911 13.9326 61.7962C14.3014 61.6323 14.6293 61.5094 14.9981 61.4274C15.6128 63.1485 16.1455 64.9106 16.7192 66.5908H16.7602C16.8011 66.5088 16.8421 66.4268 16.8421 66.3449C17.2519 64.9106 17.6617 63.5173 18.0305 62.0831C18.0715 61.8782 18.1944 61.7552 18.3993 61.6733C18.6452 61.5913 18.8911 61.5094 19.1779 61.3864C19.7516 63.1485 20.3253 64.8697 20.899 66.5908H20.94C20.981 66.5088 21.022 66.4268 21.022 66.3449C21.4318 64.8287 21.8825 63.3125 22.2923 61.7962C22.4562 61.6323 22.4972 61.5094 22.5382 61.3455Z" fill="#2E597D"/>
<path d="M47.2898 61.7961C47.2898 61.6322 47.2898 61.5093 47.2898 61.4273C47.2898 60.3209 47.2898 59.2145 47.2898 58.108C47.2898 57.8212 47.2898 57.8212 47.5767 57.6982C47.8226 57.6163 48.1094 57.5343 48.3963 57.4114C48.3963 57.5343 48.4373 57.6573 48.4373 57.7392C48.4373 60.8536 48.4373 63.927 48.4373 67.0414C48.4373 67.2463 48.3553 67.4102 48.1914 67.5332C47.2489 68.1888 46.2244 68.5577 45.077 68.5577C44.3394 68.5577 43.7247 68.2708 43.2329 67.6561C42.7822 67.0824 42.5363 66.4267 42.4134 65.7301C42.2904 64.8695 42.3314 64.05 42.6592 63.2304C42.8641 62.7796 43.11 62.3698 43.4788 62.001C43.8886 61.5912 44.4213 61.3863 44.995 61.3454C45.6507 61.3044 46.2654 61.4273 46.8801 61.6732C47.044 61.7142 47.1259 61.7552 47.2898 61.7961ZM47.2898 64.9925C47.2898 64.3368 47.2898 63.6812 47.2898 62.9845C47.2898 62.8616 47.2899 62.7386 47.1259 62.6567C46.7161 62.4108 46.2654 62.2059 45.8146 62.1649C45.1589 62.083 44.6262 62.2879 44.2574 62.8206C44.1345 63.0255 44.0115 63.2304 43.9296 63.4763C43.6427 64.2549 43.5608 65.0744 43.7247 65.935C43.8066 66.3858 43.9706 66.8365 44.2574 67.2463C44.6262 67.7381 45.118 67.943 45.6917 67.902C46.1834 67.861 46.6342 67.6561 47.044 67.4102C47.2079 67.3283 47.2898 67.2054 47.2898 67.0005C47.2898 66.3038 47.2898 65.6481 47.2898 64.9925Z" fill="#2E597D"/>
<path d="M1.18745 67.984C1.18745 69.3364 1.18745 70.6477 1.18745 72C1.10549 72 1.02353 72 0.982553 71.959C0.736679 71.877 0.531786 71.7951 0.285912 71.7131C0.121996 71.6722 0.0400391 71.5492 0.0400391 71.3853C0.0400391 71.3033 0.0400391 71.2214 0.0400391 71.1394C0.0400391 68.3938 0.0400391 65.6483 0.0400391 62.9027C0.0400391 62.6568 0.121996 62.4519 0.32689 62.288C0.900596 61.7962 1.55626 61.5504 2.29388 61.4274C2.66269 61.3864 3.07248 61.3455 3.48227 61.3455C4.26087 61.3455 4.83457 61.7143 5.28534 62.329C5.5722 62.7387 5.77709 63.2305 5.90003 63.7222C6.06394 64.5418 6.10492 65.3614 5.94101 66.181C5.81807 66.7957 5.53122 67.3284 5.08045 67.7792C4.50674 68.3938 3.76912 68.5987 2.99052 68.5168C2.4578 68.4758 2.00703 68.3119 1.51528 68.066C1.39234 68.107 1.31038 68.066 1.18745 67.984ZM1.18745 64.9106C1.18745 65.5663 1.18745 66.222 1.18745 66.9186C1.18745 67.0825 1.22843 67.2054 1.39234 67.2874C1.76115 67.4923 2.08899 67.6152 2.49878 67.6972C3.40031 67.8611 4.13793 67.4923 4.46576 66.6317C4.50674 66.4678 4.54772 66.3449 4.5887 66.181C4.75262 65.4024 4.75262 64.6238 4.5887 63.8452C4.54772 63.5583 4.42479 63.2305 4.30185 62.9846C4.05598 62.4109 3.56423 62.165 2.94954 62.1241C2.41682 62.1241 1.88409 62.247 1.43332 62.4929C1.22843 62.5748 1.14647 62.6978 1.14647 62.9436C1.18745 63.5993 1.18745 64.255 1.18745 64.9106Z" fill="#2E597D"/>
<path d="M20.49 2.21265C20.49 3.19614 20.49 4.13866 20.49 5.12215C21.0228 5.16313 21.5555 5.12215 22.0472 5.16313C22.1292 5.36803 22.1292 5.69586 22.0882 6.06467C21.5965 6.10565 21.0637 6.06467 20.49 6.10565C20.49 6.22858 20.449 6.31054 20.449 6.43348C20.449 8.19557 20.449 9.95767 20.449 11.6788C20.449 11.8837 20.49 12.1296 20.531 12.3344C20.613 12.7033 20.8588 12.9491 21.2276 13.0721C21.4325 13.154 21.6784 13.154 21.8833 13.195C22.0882 13.236 22.0882 13.236 22.1292 13.4409C22.1292 13.5638 22.1292 13.6868 22.1292 13.8097C22.1292 13.9326 22.0882 13.9736 21.9653 13.9736C21.3506 14.0146 20.6949 13.9736 20.1212 13.6868C19.3836 13.3179 19.0148 12.6623 19.0148 11.8427C19.0148 11.1461 19.0148 10.4084 19.0148 9.71179C19.0148 8.60536 19.0148 7.53991 19.0148 6.43348C19.0148 6.31054 19.0148 6.1876 19.0148 6.06467C18.6869 6.06467 18.4001 6.02369 18.0723 6.02369C18.0723 5.69586 18.0723 5.44998 18.0723 5.12215C18.4001 5.12215 18.6869 5.08117 19.0148 5.08117C19.0148 4.95824 19.0148 4.8353 19.0148 4.75334C19.0148 4.13866 19.0148 3.52397 19.0148 2.95027C19.0148 2.70439 19.0148 2.70439 19.2607 2.58146C19.5885 2.45852 19.8753 2.37656 20.2032 2.25362C20.2851 2.2946 20.3671 2.25363 20.49 2.21265Z" fill="#646464"/>
<path d="M13.278 64.8286C13.278 65.8941 13.0322 66.7956 12.3765 67.5742C11.8438 68.1889 11.1881 68.5167 10.3685 68.5577C10.0817 68.5577 9.79482 68.5577 9.54895 68.5167C8.77035 68.3938 8.19664 68.025 7.74588 67.4103C6.84434 66.2219 6.76238 64.091 7.54098 62.8207C8.72937 60.8946 11.5569 60.9356 12.7043 62.6977C13.1141 63.3534 13.278 64.091 13.278 64.8286ZM12.0487 64.9516H12.0077C12.0077 64.7467 12.0077 64.5827 12.0077 64.3779C11.9667 63.8861 11.8438 63.4353 11.5979 63.0256C11.2291 62.4518 10.7373 62.165 10.0407 62.206C9.34406 62.247 8.85231 62.5748 8.56546 63.1895C8.4835 63.3534 8.40154 63.5583 8.36056 63.7222C8.19664 64.4188 8.23762 65.1565 8.31958 65.8531C8.40154 66.2629 8.52448 66.6727 8.72937 67.0415C9.38504 68.1889 11.0242 68.025 11.5569 67.0005C11.6799 66.7546 11.7618 66.5088 11.8438 66.2629C11.9257 65.8531 11.9667 65.4023 12.0487 64.9516Z" fill="#2E597D"/>
<path d="M29.3401 64.8698C28.6434 64.8698 27.9468 64.8698 27.2501 64.8698C26.5535 64.8698 25.8978 64.8698 25.2012 64.8698C25.1192 65.0747 25.1602 65.2796 25.1602 65.4845C25.1602 65.9762 25.3241 66.427 25.57 66.8778C26.0208 67.6154 26.7174 67.9022 27.537 67.7793C27.9878 67.6973 28.4385 67.5744 28.8483 67.3695C28.9303 67.3285 29.0122 67.2875 29.0942 67.2466C29.2581 67.4105 29.2991 67.4924 29.381 67.7793C29.3401 67.8203 29.2581 67.8613 29.2171 67.9022C28.3156 68.4759 27.3321 68.6399 26.3076 68.4759C25.3241 68.312 24.7094 67.6973 24.2587 66.8368C24.0948 66.468 23.9718 66.0992 23.9308 65.6894C23.8489 64.8698 23.8899 64.0502 24.1767 63.2306C24.2587 63.0257 24.3406 62.8618 24.4226 62.6569C24.9553 61.6734 25.8159 61.2227 26.9223 61.3046C28.0287 61.3866 28.7664 62.0013 29.0942 63.0667C29.2581 63.5585 29.2991 64.0912 29.3401 64.6239C29.381 64.7059 29.381 64.7469 29.3401 64.8698ZM28.1927 64.1322C28.1927 63.5175 28.0697 62.9848 27.6599 62.534C27.2092 62.0013 26.3486 61.9603 25.8569 62.452C25.3651 62.9028 25.2832 63.5175 25.2012 64.1322C26.2257 64.1322 27.2092 64.1322 28.1927 64.1322Z" fill="#2E597D"/>
<path d="M37.0034 64.8695C36.9624 65.853 37.0854 66.7135 37.823 67.3692C38.2328 67.779 38.7655 67.8609 39.3392 67.779C39.79 67.697 40.2408 67.5741 40.6915 67.3692C40.7735 67.3282 40.8964 67.2872 41.0193 67.2463C41.1013 67.4512 41.1833 67.6151 41.3062 67.82C41.1423 67.9019 40.9784 68.0249 40.8145 68.1068C40.0359 68.5576 39.2163 68.6395 38.3147 68.5576C37.5361 68.4756 36.9624 68.0658 36.4707 67.4921C36.0609 66.9184 35.856 66.3037 35.774 65.6071C35.7331 64.8695 35.774 64.1728 35.9789 63.4762C36.1019 63.1484 36.2248 62.8205 36.4297 62.5337C36.8805 61.7961 37.6181 61.4272 38.4787 61.4272C38.7655 61.4272 39.0524 61.4682 39.3392 61.5092C39.9129 61.6321 40.3637 62.001 40.6915 62.5337C40.9784 62.9844 41.1013 63.5172 41.1423 64.0499C41.1833 64.2958 41.1833 64.5826 41.2242 64.8695C41.0603 64.8695 40.9374 64.9105 40.8145 64.9105C39.667 64.9105 38.5196 64.9105 37.3722 64.9105C37.2903 64.8695 37.1673 64.8695 37.0034 64.8695ZM40.0359 64.1319C40.0359 63.5172 39.9129 63.0254 39.5441 62.5747C39.0114 61.96 38.1508 62.0829 37.782 62.4107C37.2493 62.8615 37.1263 63.4762 37.0854 64.1728C38.0279 64.1319 39.0114 64.1319 40.0359 64.1319Z" fill="#2E597D"/>
<path d="M34.9964 61.3864C34.8325 61.6733 34.7096 61.9192 34.5866 62.206C34.5047 62.3289 34.3817 62.3289 34.2998 62.288C33.9719 62.206 33.6851 62.247 33.3572 62.288C33.0294 62.3699 32.7426 62.4929 32.4967 62.6568C32.2918 62.7797 32.2098 62.9026 32.2098 63.1485C32.2098 64.7877 32.2098 66.4268 32.2098 68.025C32.2098 68.148 32.2098 68.2709 32.1689 68.3938C31.8001 68.3938 31.4312 68.3938 31.0215 68.3938C31.0215 68.2709 30.9805 68.1889 30.9805 68.066C30.9805 66.3449 30.9805 64.6647 30.9805 62.9436C30.9805 62.7387 31.0624 62.5748 31.1854 62.4519C31.841 61.8372 32.6606 61.5094 33.5212 61.3454C34.0539 61.2635 34.5047 61.2635 34.9964 61.3864Z" fill="#2E597D"/>
<defs>
<linearGradient id="paint0_linear_2936_1088" x1="5.98652" y1="33.9286" x2="32.8261" y2="33.9286" gradientUnits="userSpaceOnUse">
<stop stop-color="#3679B0"/>
<stop offset="1" stop-color="#366A96"/>
</linearGradient>
<linearGradient id="paint1_linear_2936_1088" x1="15.3951" y1="43.2662" x2="42.2003" y2="43.2662" gradientUnits="userSpaceOnUse">
<stop stop-color="#FFD855"/>
<stop offset="1" stop-color="#FFC836"/>
</linearGradient>
</defs>
</svg>
