<svg width="111" height="34" viewBox="0 0 111 34" fill="none" xmlns="http://www.w3.org/2000/svg">
<path d="M4.90782 1.19395V33H0.691774V1.19395H4.90782ZM18.2332 15.5023V18.9538H3.99034V15.5023H18.2332ZM20.3958 1.19395V4.64543H3.99034V1.19395H20.3958ZM33.4808 4.01193L22.9516 33H18.6482L30.7721 1.19395H33.5464L33.4808 4.01193ZM42.3061 33L31.7551 4.01193L31.6896 1.19395H34.4639L46.6314 33H42.3061ZM41.76 21.2256V24.6771H23.891V21.2256H41.76ZM55.413 1.19395V33H51.197V1.19395H55.413ZM80.0321 24.9611C80.0321 24.2184 79.9156 23.563 79.6826 22.9951C79.4642 22.4125 79.071 21.8883 78.503 21.4222C77.9496 20.9562 77.1778 20.512 76.1875 20.0897C75.2117 19.6674 73.9738 19.2378 72.4738 18.8009C70.901 18.3348 69.4811 17.8179 68.2141 17.2499C66.9471 16.6674 65.8621 16.0047 64.9592 15.262C64.0563 14.5193 63.3646 13.6673 62.884 12.7062C62.4034 11.745 62.1631 10.6455 62.1631 9.4076C62.1631 8.16973 62.4179 7.02651 62.9277 5.97796C63.4374 4.92941 64.1655 4.01921 65.1121 3.24736C66.0733 2.46095 67.2165 1.84929 68.5418 1.4124C69.867 0.975501 71.3452 0.757052 72.9763 0.757052C75.3646 0.757052 77.3889 1.21579 79.0491 2.13328C80.7239 3.03619 81.9982 4.2231 82.872 5.69398C83.7458 7.1503 84.1827 8.70857 84.1827 10.3688H79.9885C79.9885 9.17459 79.7336 8.11876 79.2239 7.20127C78.7142 6.26923 77.9423 5.54107 76.9083 5.01679C75.8743 4.47795 74.5637 4.20853 72.9763 4.20853C71.4763 4.20853 70.2384 4.43426 69.2627 4.88572C68.2869 5.33718 67.5588 5.94884 67.0782 6.72069C66.6121 7.49254 66.3791 8.37361 66.3791 9.36391C66.3791 10.0338 66.5175 10.6455 66.7942 11.1989C67.0855 11.7377 67.5296 12.2401 68.1267 12.7062C68.7384 13.1722 69.5102 13.6018 70.4423 13.995C71.3889 14.3882 72.5175 14.7669 73.8282 15.1309C75.6341 15.6407 77.1923 16.2086 78.503 16.8348C79.8137 17.4611 80.8914 18.1674 81.736 18.9538C82.5953 19.7256 83.2288 20.6067 83.6365 21.597C84.0589 22.5727 84.27 23.6795 84.27 24.9174C84.27 26.2135 84.0079 27.3859 83.4836 28.4344C82.9593 29.483 82.2093 30.3786 81.2336 31.1213C80.2579 31.8641 79.0855 32.4393 77.7166 32.8471C76.3622 33.2403 74.8476 33.4369 73.1729 33.4369C71.702 33.4369 70.2529 33.233 68.8258 32.8252C67.4131 32.4175 66.1243 31.8058 64.9592 30.9903C63.8087 30.1747 62.884 29.1699 62.1849 27.9757C61.5005 26.7669 61.1582 25.3689 61.1582 23.7815H65.3524C65.3524 24.8737 65.5636 25.8131 65.9859 26.5995C66.4083 27.3713 66.9835 28.0121 67.7117 28.5218C68.4544 29.0315 69.2918 29.4102 70.2238 29.6577C71.1704 29.8908 72.1534 30.0073 73.1729 30.0073C74.6438 30.0073 75.8889 29.8034 76.9083 29.3956C77.9278 28.9878 78.6996 28.4053 79.2239 27.648C79.7627 26.8907 80.0321 25.9951 80.0321 24.9611ZM106.595 24.9611C106.595 24.2184 106.479 23.563 106.246 22.9951C106.027 22.4125 105.634 21.8883 105.066 21.4222C104.513 20.9562 103.741 20.512 102.751 20.0897C101.775 19.6674 100.537 19.2378 99.0371 18.8009C97.4643 18.3348 96.0444 17.8179 94.7774 17.2499C93.5104 16.6674 92.4254 16.0047 91.5225 15.262C90.6196 14.5193 89.9278 13.6673 89.4473 12.7062C88.9667 11.745 88.7264 10.6455 88.7264 9.4076C88.7264 8.16973 88.9812 7.02651 89.4909 5.97796C90.0007 4.92941 90.7288 4.01921 91.6754 3.24736C92.6366 2.46095 93.7798 1.84929 95.1051 1.4124C96.4303 0.975501 97.9085 0.757052 99.5396 0.757052C101.928 0.757052 103.952 1.21579 105.612 2.13328C107.287 3.03619 108.561 4.2231 109.435 5.69398C110.309 7.1503 110.746 8.70857 110.746 10.3688H106.552C106.552 9.17459 106.297 8.11876 105.787 7.20127C105.277 6.26923 104.506 5.54107 103.472 5.01679C102.438 4.47795 101.127 4.20853 99.5396 4.20853C98.0396 4.20853 96.8017 4.43426 95.8259 4.88572C94.8502 5.33718 94.122 5.94884 93.6415 6.72069C93.1754 7.49254 92.9424 8.37361 92.9424 9.36391C92.9424 10.0338 93.0808 10.6455 93.3575 11.1989C93.6487 11.7377 94.0929 12.2401 94.69 12.7062C95.3017 13.1722 96.0735 13.6018 97.0056 13.995C97.9522 14.3882 99.0808 14.7669 100.392 15.1309C102.197 15.6407 103.756 16.2086 105.066 16.8348C106.377 17.4611 107.455 18.1674 108.299 18.9538C109.159 19.7256 109.792 20.6067 110.2 21.597C110.622 22.5727 110.833 23.6795 110.833 24.9174C110.833 26.2135 110.571 27.3859 110.047 28.4344C109.523 29.483 108.773 30.3786 107.797 31.1213C106.821 31.8641 105.649 32.4393 104.28 32.8471C102.926 33.2403 101.411 33.4369 99.7362 33.4369C98.2653 33.4369 96.8162 33.233 95.389 32.8252C93.9764 32.4175 92.6876 31.8058 91.5225 30.9903C90.372 30.1747 89.4473 29.1699 88.7482 27.9757C88.0638 26.7669 87.7215 25.3689 87.7215 23.7815H91.9157C91.9157 24.8737 92.1269 25.8131 92.5492 26.5995C92.9716 27.3713 93.5468 28.0121 94.275 28.5218C95.0177 29.0315 95.8551 29.4102 96.7871 29.6577C97.7337 29.8908 98.7167 30.0073 99.7362 30.0073C101.207 30.0073 102.452 29.8034 103.472 29.3956C104.491 28.9878 105.263 28.4053 105.787 27.648C106.326 26.8907 106.595 25.9951 106.595 24.9611Z" fill="black"/>
</svg>
