<svg width="67" height="67" viewBox="0 0 67 67" fill="none" xmlns="http://www.w3.org/2000/svg">
<path d="M33.5011 4.16016C17.326 4.16016 4.16113 17.3312 4.16113 33.5002C4.16113 49.6691 17.3322 62.8402 33.5011 62.8402C49.6701 62.8402 62.8411 49.6691 62.8411 33.5002C62.8411 17.3312 49.6701 4.16016 33.5011 4.16016ZM33.4577 6.76705C33.9593 6.78004 34.4361 6.98914 34.7863 7.34975C35.1364 7.71036 35.3323 8.19395 35.3322 8.6974C35.3322 9.20936 35.1288 9.70035 34.7668 10.0624C34.4048 10.4244 33.9138 10.6277 33.4018 10.6277C32.8899 10.6277 32.3989 10.4244 32.0369 10.0624C31.6749 9.70035 31.4715 9.20936 31.4715 8.6974C31.4714 8.43913 31.5231 8.18347 31.6236 7.94555C31.7241 7.70763 31.8713 7.4923 32.0565 7.3123C32.2417 7.1323 32.4611 6.9913 32.7018 6.89764C32.9425 6.80399 33.1995 6.75958 33.4577 6.76705ZM37.877 9.94498C41.2657 10.5797 44.4757 11.9445 47.2839 13.9446C50.0922 15.9446 52.4314 18.532 54.1391 21.5271L51.8611 26.6664C51.4701 27.5539 51.8735 28.5967 52.7549 28.9939L57.137 30.9367C57.2729 32.3065 57.2895 33.6854 57.1866 35.0581H54.7473C54.5053 35.0581 54.406 35.2195 54.406 35.4553V36.5726C54.406 39.2043 52.9225 39.7815 51.6191 39.9243C50.3777 40.0671 49.006 39.4029 48.8322 38.6457C48.0998 34.5305 46.8832 33.6553 44.9591 32.1346C47.3487 30.6202 49.8315 28.3795 49.8315 25.3877C49.8315 22.1539 47.6156 20.1181 46.1073 19.1188C43.9846 17.7222 41.6384 17.4429 41.0053 17.4429H15.8053C19.2898 13.5502 23.9606 10.9149 29.0942 9.94498L32.0673 13.0608C32.7377 13.7622 33.8487 13.7933 34.5501 13.1167L37.877 9.94498ZM10.4425 24.2333C10.9447 24.2478 11.4215 24.4576 11.7715 24.818C12.1215 25.1785 12.3172 25.6612 12.317 26.1636C12.317 26.6756 12.1136 27.1666 11.7516 27.5286C11.3896 27.8906 10.8986 28.0939 10.3867 28.0939C9.87469 28.0939 9.3837 27.8906 9.02169 27.5286C8.65968 27.1666 8.45631 26.6756 8.45631 26.1636C8.4562 25.9053 8.50792 25.6497 8.6084 25.4118C8.70888 25.1738 8.85609 24.9585 9.0413 24.7785C9.2265 24.5985 9.44595 24.4575 9.68663 24.3638C9.92732 24.2702 10.1844 24.2258 10.4425 24.2333ZM56.4667 24.3202C56.9689 24.3347 57.4456 24.5445 57.7956 24.9049C58.1457 25.2654 58.3413 25.7481 58.3411 26.2505C58.3411 26.7625 58.1378 27.2534 57.7757 27.6155C57.4137 27.9775 56.9227 28.1808 56.4108 28.1808C55.8988 28.1808 55.4078 27.9775 55.0458 27.6155C54.6838 27.2534 54.4804 26.7625 54.4804 26.2505C54.4803 25.9922 54.5321 25.7366 54.6325 25.4987C54.733 25.2607 54.8802 25.0454 55.0654 24.8654C55.2506 24.6854 55.4701 24.5444 55.7108 24.4507C55.9515 24.3571 56.2085 24.3127 56.4667 24.3202ZM14.0798 24.6305H17.4439V39.8002H10.6535C9.81492 36.8553 9.55357 33.776 9.88389 30.7319L14.0425 28.8822C14.9301 28.485 15.3335 27.4484 14.9363 26.5608L14.0798 24.6305ZM28.1198 24.7919H36.1329C36.5487 24.7919 39.0563 25.2698 39.0563 27.1505C39.0563 28.7084 37.1322 29.267 35.5494 29.267H28.1135L28.1198 24.7919ZM28.1198 35.6912H34.2584C34.817 35.6912 37.2563 35.8526 38.0322 38.9684C38.2742 39.9243 38.8142 43.0402 39.1804 44.0395C39.5466 45.1567 41.0301 47.3912 42.6129 47.3912H52.6308C51.9594 48.2903 51.2252 49.1407 50.4335 49.936L46.3556 49.0608C45.406 48.856 44.4687 49.4643 44.2639 50.4139L43.2956 54.9326C40.182 56.343 36.8005 57.0649 33.3823 57.0488C29.9641 57.0328 26.5897 56.2792 23.4894 54.8395L22.5211 50.3208C22.3163 49.3712 21.3853 48.7629 20.4356 48.9677L16.4446 49.8243C15.704 49.0603 15.0155 48.2475 14.3839 47.3912H33.7929C34.0101 47.3912 34.1591 47.354 34.1591 47.1491V40.2843C34.1591 40.0857 34.0101 40.0422 33.7929 40.0422H28.1135L28.1198 35.6912ZM19.1632 51.4133C19.6654 51.4278 20.1422 51.6376 20.4922 51.998C20.8422 52.3585 21.0379 52.8412 21.0377 53.3436C21.0377 53.8556 20.8343 54.3466 20.4723 54.7086C20.1103 55.0706 19.6193 55.2739 19.1073 55.2739C18.5954 55.2739 18.1044 55.0706 17.7424 54.7086C17.3804 54.3466 17.177 53.8556 17.177 53.3436C17.1769 53.0853 17.2286 52.8297 17.3291 52.5918C17.4296 52.3538 17.5768 52.1385 17.762 51.9585C17.9472 51.7785 18.1666 51.6375 18.4073 51.5438C18.648 51.4502 18.905 51.4058 19.1632 51.4133ZM47.746 51.5002C48.2482 51.5147 48.7249 51.7245 49.075 52.0849C49.425 52.4454 49.6207 52.9281 49.6204 53.4305C49.6204 53.9425 49.4171 54.4334 49.0551 54.7955C48.693 55.1575 48.2021 55.3608 47.6901 55.3608C47.1781 55.3608 46.6871 55.1575 46.3251 54.7955C45.9631 54.4334 45.7598 53.9425 45.7598 53.4305C45.7596 53.1722 45.8114 52.9166 45.9118 52.6787C46.0123 52.4407 46.1595 52.2254 46.3447 52.0454C46.53 51.8654 46.7494 51.7244 46.9901 51.6307C47.2308 51.5371 47.4878 51.4927 47.746 51.5002Z" fill="black"/>
<path fill-rule="evenodd" clip-rule="evenodd" d="M61.2014 33.5C61.2014 40.8469 58.2829 47.8928 53.0878 53.0878C47.8928 58.2829 40.8469 61.2014 33.5 61.2014C26.1531 61.2014 19.1072 58.2829 13.9122 53.0878C8.71715 47.8928 5.79862 40.8469 5.79862 33.5C5.79862 26.1531 8.71715 19.1072 13.9122 13.9122C19.1072 8.71715 26.1531 5.79862 33.5 5.79862C40.8469 5.79862 47.8928 8.71715 53.0878 13.9122C58.2829 19.1072 61.2014 26.1531 61.2014 33.5ZM60.68 30.8248L65 33.5L60.68 36.1752L64.3917 39.6448L59.6372 41.4262L62.6041 45.5538L57.5828 46.3731L59.6931 51.0034L54.6096 50.8234L55.7766 55.7766L50.8234 54.6096L51.0034 59.6931L46.3731 57.5828L45.5538 62.6041L41.4262 59.6372L39.6448 64.3917L36.1752 60.68L33.5 65L30.8248 60.68L27.3552 64.3917L25.5738 59.6372L21.4462 62.6041L20.6269 57.5828L15.9966 59.6931L16.1766 54.6096L11.2234 55.7766L12.3903 50.8234L7.3069 51.0034L9.41724 46.3731L4.39586 45.5538L7.36276 41.4262L2.60828 39.6448L6.32 36.1752L2 33.5L6.32 30.8248L2.60828 27.3552L7.36276 25.5738L4.39586 21.4462L9.41724 20.6269L7.3069 15.9966L12.3903 16.1766L11.2234 11.2234L16.1766 12.3903L15.9966 7.3069L20.6269 9.41724L21.4462 4.39586L25.5738 7.36276L27.3552 2.60828L30.8248 6.32L33.5 2L36.1752 6.32L39.6448 2.60828L41.4262 7.36276L45.5538 4.39586L46.3731 9.41724L51.0034 7.3069L50.8234 12.3903L55.7766 11.2234L54.6096 16.1766L59.6931 15.9966L57.5828 20.6269L62.6041 21.4462L59.6372 25.5738L64.3917 27.3552L60.68 30.8248Z" fill="black" stroke="black" stroke-width="2.12621" stroke-linecap="round" stroke-linejoin="round"/>
</svg>
