<svg width="105" height="43" viewBox="0 0 105 43" fill="none" xmlns="http://www.w3.org/2000/svg">
<path d="M11.6233 36.8763C12.3883 37.9113 13.4233 38.7663 14.5933 39.3063C15.8533 39.9363 17.2484 40.2513 18.6434 40.2063C19.7684 40.2513 20.8934 40.0263 21.9735 39.6213C22.8285 39.3063 23.5935 38.7663 24.1785 38.0913C24.7635 37.4163 25.1685 36.6513 25.3935 35.7962C25.6635 34.8962 25.7536 33.9512 25.7536 33.0062V29.7211H25.6635C24.9435 30.8911 23.8635 31.8362 22.6035 32.3762C21.3885 32.9162 20.1284 33.1862 18.8234 33.1412C17.5634 33.1412 16.2583 32.9162 15.0883 32.4212C13.9633 31.9712 12.9283 31.2961 12.0733 30.4861C11.2182 29.6311 10.4982 28.6411 10.0482 27.5161C9.55321 26.346 9.2832 25.086 9.2832 23.781C9.2832 22.521 9.50821 21.2609 10.0032 20.0459C10.4532 18.9209 11.1282 17.8859 11.9383 17.0308C12.7483 16.1758 13.7833 15.4558 14.8633 15.0058C16.0333 14.5108 17.3384 14.2858 18.5984 14.2858C19.1834 14.2858 19.7684 14.3308 20.3534 14.4208C20.9834 14.5108 21.6135 14.7358 22.1985 14.9608C23.5935 15.5458 24.8085 16.5358 25.7085 17.7959H25.7986V14.7358H28.3636V32.9162C28.3636 33.9962 28.2286 35.0312 28.0036 36.1112C27.7336 37.2363 27.2386 38.2713 26.5636 39.2163C25.7535 40.2063 24.7185 41.0163 23.5485 41.5564C22.2885 42.1864 20.5784 42.5014 18.5534 42.5014C16.8884 42.5464 15.2233 42.2314 13.6483 41.6014C12.1633 40.9713 10.8132 40.0263 9.73321 38.8113L11.6233 36.8763ZM12.1183 23.826C12.1183 24.771 12.2983 25.671 12.6583 26.526C13.0183 27.3361 13.4683 28.1011 14.0983 28.7761C14.7283 29.4061 15.4483 29.9461 16.2584 30.3061C17.1134 30.7111 18.0134 30.8911 18.9584 30.8911C20.8034 30.8911 22.5585 30.2161 23.9085 28.9561C24.5835 28.3261 25.0785 27.5611 25.4385 26.751C25.7985 25.851 25.9786 24.861 25.9336 23.871C25.9336 22.926 25.7985 22.0259 25.4835 21.1259C25.1685 20.3159 24.7185 19.5509 24.1335 18.8759C23.5035 18.2009 22.7835 17.7059 21.9285 17.3458C21.0285 16.9408 20.0384 16.7608 19.0484 16.7608C18.1034 16.7608 17.2034 16.9408 16.3484 17.3458C15.5383 17.7059 14.8183 18.2459 14.1883 18.8759C13.5583 19.5059 13.0633 20.2709 12.7483 21.1259C12.2533 21.9359 12.0733 22.881 12.1183 23.826ZM38.8938 33.1862H36.0588V5.4656H44.6089C47.444 5.4656 49.6491 6.09561 51.2691 7.31064C52.8891 8.52566 53.6991 10.3707 53.6991 12.8908C53.7441 14.6908 53.1141 16.4458 51.8991 17.7509C50.6841 19.0559 48.929 19.8209 46.634 20.0459L54.6442 33.1862H51.1791L43.5739 20.3159H38.8938V33.1862ZM38.8938 17.7509H43.8889C44.969 17.7959 46.049 17.6609 47.084 17.3458C47.849 17.1208 48.569 16.8058 49.199 16.3108C49.6941 15.9058 50.0991 15.3658 50.3241 14.7808C50.5491 14.1958 50.6841 13.5208 50.6841 12.8908C50.6841 12.2607 50.5491 11.6307 50.3241 11.0457C50.0991 10.4607 49.6941 9.92069 49.199 9.51568C48.569 9.02067 47.849 8.66066 47.084 8.48066C46.049 8.21065 44.969 8.07565 43.8889 8.12065H38.8938V17.7509ZM59.5043 5.4656H67.5594C70.3945 5.4656 72.5995 6.09561 74.2196 7.31064C75.8396 8.52566 76.6496 10.3707 76.6496 12.8908C76.6496 15.3658 75.8396 17.2108 74.2196 18.4709C72.5995 19.7309 70.3495 20.3159 67.5594 20.3159H62.2943V33.1862H59.4593V5.4656H59.5043ZM62.2943 17.7509H66.8394C67.9194 17.7959 68.9995 17.6609 70.0345 17.3458C70.7995 17.1208 71.5195 16.8058 72.1495 16.3108C72.6445 15.9058 73.0495 15.3658 73.2746 14.7808C73.4996 14.1958 73.6346 13.5208 73.6346 12.8908C73.6346 12.2607 73.4996 11.6307 73.2746 11.0457C73.0495 10.4607 72.6445 9.92069 72.1495 9.51568C71.5195 9.02067 70.7995 8.66066 70.0345 8.48066C68.9995 8.21065 67.9194 8.07565 66.8394 8.12065H62.2943V17.7509ZM105 28.8211C104.505 29.5411 103.92 30.2161 103.245 30.8011C102.525 31.4311 101.715 31.9712 100.86 32.4212C99.9601 32.8712 98.9701 33.2312 97.9801 33.5012C96.9001 33.7712 95.82 33.9062 94.695 33.9062C92.715 33.9062 90.7799 33.5462 88.9349 32.8262C85.4698 31.4311 82.7248 28.6861 81.3297 25.176C80.5647 23.331 80.2047 21.3509 80.2497 19.3259C80.2497 17.3458 80.6097 15.3658 81.3297 13.4758C82.7248 10.0107 85.4698 7.22063 88.9349 5.8256C90.7349 5.10559 92.715 4.70058 94.695 4.74558C96.45 4.74558 98.2051 5.10559 99.8701 5.7806C101.625 6.50062 103.155 7.62564 104.28 9.15567L101.805 11.0007C101.49 10.5057 101.085 10.0557 100.635 9.65068C100.095 9.20067 99.5551 8.79567 98.9251 8.48066C98.2501 8.12065 97.5751 7.85064 96.8551 7.67064C96.135 7.44564 95.415 7.35564 94.65 7.35564C92.985 7.31063 91.3649 7.67064 89.8799 8.34566C88.5299 8.97567 87.3148 9.87569 86.2798 10.9557C85.2898 12.0807 84.5248 13.3858 84.0298 14.7808C82.9948 17.7509 82.9948 20.9459 84.0298 23.916C84.5248 25.311 85.2898 26.616 86.2798 27.7411C87.2699 28.8661 88.4849 29.7661 89.8799 30.3511C91.3649 31.0261 93.03 31.3411 94.65 31.3411C95.37 31.3411 96.09 31.2961 96.8101 31.1611C97.5301 31.0261 98.2501 30.8011 98.9251 30.4861C99.6451 30.1711 100.275 29.7211 100.905 29.2261C101.58 28.6411 102.12 27.9661 102.615 27.2011L105 28.8211Z" fill="#244B5A"/>
<mask id="mask0_2936_910" style="mask-type:luminance" maskUnits="userSpaceOnUse" x="0" y="0" width="15" height="15">
<path d="M7.26005 8.69068e-05L0 7.31372L7.31363 14.5738L14.5737 7.26013L7.26005 8.69068e-05Z" fill="white"/>
</mask>
<g mask="url(#mask0_2936_910)">
<path d="M0.147698 0.0202637L0.0126953 1.14529V0.0202637H0.147698Z" fill="#75CACA"/>
<path d="M0.282701 0.0202637L0.0126953 2.63032V1.14529L0.147698 0.0202637H0.282701Z" fill="#74CBCA"/>
<path d="M0.462705 0.0203421L0.0126953 4.16043V2.6304L0.327702 -0.0246582C0.282701 0.0203427 0.462705 0.0203421 0.462705 0.0203421Z" fill="#74CBCA"/>
<path d="M0.642708 0.0202637L0.0126953 5.69039V4.20535L0.462705 0.0652674H0.642708V0.0202637Z" fill="#73CBCA"/>
<path d="M0.822712 0.0202637L0.0126953 7.17542V5.69039L0.642708 0.0202637H0.822712Z" fill="#73CBCA"/>
<path d="M1.0028 0.0202637L0.0127746 8.70545V7.22042L0.822791 0.0652674H1.0028V0.0202637ZM1.1378 0.0202637L-0.0322266 10.1905V8.70545L0.957794 0.0202637H1.1378Z" fill="#72C9C9"/>
<path d="M1.31772 0.0202637L0.0126953 11.7205V10.2355L1.18272 0.0652674C1.13772 0.0202664 1.31772 0.0202637 1.31772 0.0202637Z" fill="#70CACA"/>
<path d="M1.49773 0.0202637L0.0126953 13.2055V11.7205L1.31772 0.0202637H1.49773Z" fill="#70CACA"/>
<path d="M1.67773 0.0202637L0.0126953 14.5556V13.2055L1.49773 0.0202637H1.67773Z" fill="#6FCAC8"/>
<path d="M1.81273 0.0202637L0.192699 14.5556H0.102697H0.0126953L1.67773 0.0202637H1.81273Z" fill="#6EC8C8"/>
<path d="M1.99242 0.0202637L0.327386 14.5556H0.192383L1.85742 0.0202637H1.99242Z" fill="#6EC8C8"/>
<path d="M2.17316 0.0202637L0.508129 14.5556H0.328125L1.99316 0.0202637H2.17316Z" fill="#6CC9C9"/>
<path d="M2.35285 0.0202637L0.687817 14.5556H0.507812L2.17285 0.0202637H2.35285Z" fill="#6DC9C8"/>
<path d="M2.53254 0.0202637L0.867504 14.5556H0.6875L2.35253 0.0202637H2.53254Z" fill="#69C7C8"/>
<path d="M2.6673 0.0202637L1.00227 14.5556H0.822266L2.4873 0.0202637H2.6673Z" fill="#69C7C8"/>
<path d="M2.84797 0.0202637L1.18293 14.5556H1.00293L2.66796 0.0202637H2.84797Z" fill="#69C8C7"/>
<path d="M3.02766 0.0202637L1.36262 14.5556H1.18262L2.84765 0.0202637H3.02766Z" fill="#68C8C7"/>
<path d="M3.20734 0.0202637L1.54231 14.5556H1.3623L3.02734 0.0202637H3.20734Z" fill="#67C7C7"/>
<path d="M3.34301 0.0202637L1.67797 14.5556H1.54297L3.208 0.0202637H3.34301Z" fill="#65C7C7"/>
<path d="M3.52277 0.0202637L1.85774 14.5556H1.67773L3.34277 0.0202637H3.52277Z" fill="#64C7C7"/>
<path d="M3.70246 0.0202637L2.03743 14.5556H1.85742L3.52246 0.0202637H3.70246Z" fill="#63C6C6"/>
<path d="M3.88215 0.0202637L2.21711 14.5556H2.03711L3.70214 0.0202637H3.88215Z" fill="#60C6C6"/>
<path d="M4.06281 0.0202637L2.39778 14.5556H2.21777L3.88281 0.0202637H4.06281Z" fill="#60C6C5"/>
<path d="M4.19758 0.0202637L2.53254 14.5556H2.35254L4.01757 0.0202637C4.06258 0.0202637 4.19758 0.0202637 4.19758 0.0202637Z" fill="#5FC6C5"/>
<path d="M4.37824 0.0202637L2.71321 14.5556H2.5332L4.19824 0.0202637H4.37824Z" fill="#5CC5C4"/>
<path d="M4.55793 0.0202637L2.89289 14.5556H2.71289L4.37793 0.0202637H4.55793Z" fill="#5AC5C4"/>
<path d="M4.73762 0.0202637L3.07258 14.5556H2.89258L4.55761 0.0202637H4.73762Z" fill="#5AC5C4"/>
<path d="M4.9173 0.0202637L3.25227 14.5556H3.07227L4.7373 0.0202637H4.9173Z" fill="#57C4C4"/>
<path d="M5.05305 0.0202637L3.38801 14.5556H3.20801L4.87304 0.0202637C4.91804 0.0202637 5.05305 0.0202637 5.05305 0.0202637Z" fill="#58C4C3"/>
<path d="M5.23273 0.0202637L3.5677 14.5556H3.3877L5.05273 0.0202637H5.23273Z" fill="#55C4C3"/>
<path d="M5.41242 0.0202637L3.74739 14.5556H3.56738L5.23242 0.0202637H5.41242Z" fill="#53C3C2"/>
<path d="M5.59309 0.0202637L3.92805 14.5556H3.74805L5.41308 0.0202637H5.59309Z" fill="#52C3C2"/>
<path d="M5.72785 0.0202637L4.06282 14.5556H3.88281L5.59285 0.0202637H5.72785Z" fill="#50C3C2"/>
<path d="M5.90754 0.0202637L4.2425 14.5556H4.0625L5.72753 0.0202637H5.90754Z" fill="#50C1C0"/>
<path d="M6.08723 0.0202637L4.42219 14.5556H4.24219L5.90722 0.0202637H6.08723Z" fill="#4BC2C0"/>
<path d="M6.26789 0.0202637L4.60286 14.5556H4.42285L6.08789 0.0202637H6.26789Z" fill="#4CC1C0"/>
<path d="M6.44758 0.0202637L4.78254 14.5556H4.60254L6.26757 0.0202637H6.44758Z" fill="#47C1BE"/>
<path d="M6.58234 0.0202637L4.91731 14.5556H4.7373L6.40234 0.0202637C6.44734 0.0202637 6.58234 0.0202637 6.58234 0.0202637Z" fill="#46C0BE"/>
<path d="M6.76293 0.0202637L5.14289 14.5556H4.96289L6.62793 0.0202637C6.58292 0.0202637 6.76293 0.0202637 6.76293 0.0202637Z" fill="#43C0BE"/>
<path d="M6.94262 0.0202637L5.27758 14.5556H5.14258L6.80761 0.0202637C6.76261 0.0202637 6.94262 0.0202637 6.94262 0.0202637Z" fill="#40BFBD"/>
<path d="M7.12238 0.0202637L5.45735 14.5556H5.27734L6.94238 0.0202637H7.12238Z" fill="#3BBFBD"/>
<path d="M7.25812 0.0202637L5.59309 14.5556H5.41309L7.07812 0.0202637C7.12312 0.0202637 7.25812 0.0202637 7.25812 0.0202637Z" fill="#39BFBC"/>
<path d="M7.43781 0.0202637L5.77278 14.5556H5.59277L7.25781 0.0202637H7.43781Z" fill="#34BEBD"/>
<path d="M7.6175 0.0202637L5.95246 14.5556H5.77246L7.4375 0.0202637H7.6175Z" fill="#32BEBB"/>
<path d="M7.79816 0.0202637L6.13313 14.5556H5.95312L7.61816 0.0202637H7.79816Z" fill="#2DBDBB"/>
<path d="M7.97785 0.0202637L6.31282 14.5556H6.13281L7.79785 0.0202637H7.97785Z" fill="#24BCBB"/>
<path d="M8.11351 0.0202637L6.49348 14.5556H6.31348L7.97851 0.0202637H8.11351Z" fill="#21BCB9"/>
<path d="M8.29223 0.0202637L6.62719 14.5556H6.49219L8.15722 0.0202637C8.11222 0.0202637 8.29223 0.0202637 8.29223 0.0202637Z" fill="#18BBB9"/>
<path d="M8.47297 0.0202637L6.80793 14.5556H6.62793L8.29297 0.0202637H8.47297Z" fill="#0FBAB9"/>
<path d="M8.65363 0.0202637L6.9886 14.5556H6.80859L8.47363 0.0202637H8.65363Z" fill="#03BBB8"/>
<path d="M8.78742 0.0202637L7.12239 14.5556H6.94238L8.60742 0.0202637C8.65242 0.0202637 8.78742 0.0202637 8.78742 0.0202637Z" fill="#06B8B6"/>
<path d="M8.96711 0.0202637L7.30207 14.5556H7.12207L8.78711 0.0202637H8.96711Z" fill="#06B8B6"/>
<path d="M9.14777 0.0202637L7.48274 14.5556H7.30273L8.96777 0.0202637H9.14777Z" fill="#03B7B5"/>
<path d="M9.32844 0.0202637L7.6634 14.5556H7.4834L9.14843 0.0202637H9.32844Z" fill="#04B7B4"/>
<path d="M9.50812 0.0202637L7.84309 14.5556H7.66309L9.32812 0.0202637H9.50812Z" fill="#00B6B5"/>
<path d="M9.64281 0.0202637L7.97778 14.5556H7.84277L9.50781 0.0202637H9.64281Z" fill="#03B6B4"/>
<path d="M9.82258 0.0202637L8.15754 14.5556H7.97754L9.64257 0.0202637H9.82258Z" fill="#05B6B2"/>
<path d="M10.0032 0.0202637L8.33821 14.5556H8.1582L9.82324 0.0202637H10.0032Z" fill="#01B5B1"/>
<path d="M10.1829 0.0202637L8.51789 14.5556H8.33789L10.0029 0.0202637H10.1829Z" fill="#01B5B1"/>
<path d="M10.3626 0.0202637L8.69758 14.5556H8.51758L10.1826 0.0202637H10.3626Z" fill="#00B4B1"/>
<path d="M10.4974 0.0202637L8.83235 14.5556H8.65234L10.3174 0.0202637C10.3624 0.0202637 10.4974 0.0202637 10.4974 0.0202637Z" fill="#00B3B0"/>
<path d="M10.678 0.0202637L9.01301 14.5556H8.83301L10.498 0.0202637H10.678Z" fill="#00B3B0"/>
<path d="M10.8587 0.0202637L9.19368 14.5556H9.01367L10.6787 0.0202637H10.8587Z" fill="#00B2AF"/>
<path d="M11.0384 0.0202637L9.37336 14.5556H9.19336L10.8584 0.0202637H11.0384Z" fill="#00B2AE"/>
<path d="M11.1722 0.0202637L9.50715 14.5556H9.32715L10.9922 0.0202637C11.0372 0.0202637 11.1722 0.0202637 11.1722 0.0202637Z" fill="#00B1AE"/>
<path d="M11.3529 0.0202637L9.68782 14.5556H9.50781L11.1728 0.0202637H11.3529Z" fill="#00B1AD"/>
<path d="M11.5335 0.0202637L9.86848 14.5556H9.68848L11.3535 0.0202637H11.5335Z" fill="#00B0AC"/>
<path d="M11.7132 0.0202637L10.0482 14.5556H9.86816L11.5332 0.0202637H11.7132Z" fill="#00AFAC"/>
<path d="M14.4579 0.0202637H14.5479V14.5556H10.0479L11.7129 0.0202637H14.4579Z" fill="#00AFAC"/>
</g>
<mask id="mask1_2936_910" style="mask-type:luminance" maskUnits="userSpaceOnUse" x="22" y="2" width="10" height="10">
<path d="M27.1262 2.93208L22.8779 7.21167L27.1575 11.4599L31.4058 7.18031L27.1262 2.93208Z" fill="white"/>
</mask>
<g mask="url(#mask1_2936_910)">
<path d="M31.4231 5.42085L31.2881 2.9458H31.4231V5.42085Z" fill="#75CACA"/>
<path d="M31.4232 8.03074L31.1982 2.90063H31.3332L31.4682 5.37569V8.03074H31.4232Z" fill="#74CBCA"/>
<path d="M31.4235 10.6408L31.0635 2.90063H31.1985L31.4235 8.03074V10.6408Z" fill="#74CBCA"/>
<path d="M31.3327 11.4508L30.9277 2.90063H31.0627L31.4227 10.6408V11.4508H31.3327Z" fill="#73CBCA"/>
<path d="M31.2431 11.4508L30.8381 2.90063H30.9731L31.3781 11.4508H31.2431ZM31.1081 11.4508L30.7031 2.90063H30.8381L31.2431 11.4508H31.1081Z" fill="#72C9C9"/>
<path d="M30.9734 11.4508L30.5684 2.90063H30.7034L31.1084 11.4508H30.9734Z" fill="#70CACA"/>
<path d="M30.8825 11.4508L30.4775 2.90063H30.6125L31.0175 11.4508H30.8825Z" fill="#6FCAC8"/>
<path d="M30.7488 11.4508L30.3438 2.90063H30.4788L30.8838 11.4508H30.7488Z" fill="#6EC8C8"/>
<path d="M30.613 11.4508L30.208 2.90063H30.343L30.748 11.4508H30.613Z" fill="#6EC8C8"/>
<path d="M30.4783 11.4508L30.0732 2.90063H30.2082L30.6133 11.4508H30.4783Z" fill="#6CC9C9"/>
<path d="M30.3874 11.4508L29.9824 2.90063H30.1174L30.5224 11.4508H30.3874Z" fill="#6DC9C8"/>
<path d="M30.2527 11.4508L29.8477 2.90063H29.9827L30.3877 11.4508H30.2527Z" fill="#69C7C8"/>
<path d="M30.1179 11.4508L29.7129 2.90063H29.8479L30.2529 11.4508H30.1179Z" fill="#69C7C8"/>
<path d="M30.0281 11.4508L29.623 2.90063H29.758L30.1631 11.4508H30.0281Z" fill="#69C8C7"/>
<path d="M29.8933 11.4508L29.4883 2.90063H29.6233L30.0283 11.4508H29.8933Z" fill="#68C8C7"/>
<path d="M29.7575 11.4508L29.3525 2.90063H29.4875L29.8925 11.4508H29.7575Z" fill="#67C7C7"/>
<path d="M29.6238 11.4508L29.2188 2.90063H29.3538L29.7588 11.4508H29.6238Z" fill="#65C7C7"/>
<path d="M29.5329 11.4508L29.1279 2.90063H29.2629L29.6679 11.4508H29.5329Z" fill="#64C7C7"/>
<path d="M29.3982 11.4508L28.9932 2.90063H29.1282L29.5332 11.4508H29.3982Z" fill="#63C6C6"/>
<path d="M29.2634 11.4508L28.8584 2.90063H28.9934L29.3984 11.4508H29.2634Z" fill="#60C6C6"/>
<path d="M29.1736 11.4508L28.7686 2.90063H28.9036L29.3086 11.4508H29.1736Z" fill="#60C6C5"/>
<path d="M29.0378 11.4508L28.6328 2.90063H28.7678L29.1728 11.4508H29.0378Z" fill="#5FC6C5"/>
<path d="M28.9031 11.4508L28.498 2.90063H28.633L29.0381 11.4508H28.9031Z" fill="#5FC6C5"/>
<path d="M28.7683 11.4508L28.3633 2.90063H28.4983L28.9033 11.4508H28.7683Z" fill="#5CC5C4"/>
<path d="M28.6775 11.4508L28.2725 2.90063H28.4075L28.8125 11.4508H28.6775Z" fill="#5AC5C4"/>
<path d="M28.5437 11.4508L28.1387 2.90063H28.2737L28.6787 11.4508H28.5437Z" fill="#5AC5C4"/>
<path d="M28.4079 11.4508L28.0029 2.90063H28.1379L28.5429 11.4508H28.4079Z" fill="#57C4C4"/>
<path d="M28.3181 11.4508L27.9131 2.90063H28.0481L28.4531 11.4508H28.3181Z" fill="#58C4C3"/>
<path d="M28.1823 11.4508L27.7773 2.90063H27.9123L28.3174 11.4508H28.1823Z" fill="#55C4C3"/>
<path d="M28.0478 11.4508L27.6428 2.90063H27.7778L28.1828 11.4508H28.0478ZM27.9128 11.4508L27.5078 2.90063H27.6428L28.0478 11.4508H27.9128Z" fill="#53C3C2"/>
<path d="M27.823 11.4508L27.418 2.90063H27.553L27.958 11.4508H27.823Z" fill="#52C3C2"/>
<path d="M27.6882 11.4508L27.2832 2.90063H27.4182L27.8232 11.4508H27.6882Z" fill="#50C3C2"/>
<path d="M27.5525 11.4508L27.1475 2.90063H27.2825L27.6875 11.4508H27.5525Z" fill="#50C1C0"/>
<path d="M27.4626 11.4508L27.0576 2.90063H27.1926L27.5976 11.4508H27.4626Z" fill="#4DC2C1"/>
<path d="M27.3279 11.4508L26.9229 2.90063H27.0579L27.4629 11.4508H27.3279Z" fill="#4CC2C0"/>
<path d="M27.1931 11.4508L26.7881 2.90063H26.9231L27.3281 11.4508H27.1931Z" fill="#4BC0BF"/>
<path d="M27.0583 11.4508L26.6533 2.90063H26.7883L27.1933 11.4508H27.0583Z" fill="#47C1BE"/>
<path d="M26.9685 11.4508L26.5635 2.90063H26.6985L27.1035 11.4508H26.9685Z" fill="#46C0BE"/>
<path d="M26.8327 11.4508L26.4277 2.90063H26.5627L26.9677 11.4508H26.8327Z" fill="#43C0BE"/>
<path d="M26.698 11.4508L26.293 2.90063H26.428L26.833 11.4508H26.698Z" fill="#41C0BE"/>
<path d="M26.6081 11.4508L26.2031 2.90063H26.2931L26.6981 11.4508H26.6081Z" fill="#40BFBD"/>
<path d="M26.4724 11.4508L26.0674 2.90063H26.2024L26.6074 11.4508H26.4724Z" fill="#3BBFBD"/>
<path d="M26.3376 11.4508L25.9326 2.90063H26.0676L26.4726 11.4508H26.3376Z" fill="#3CBFBC"/>
<path d="M26.2029 11.4508L25.7979 2.90063H25.9329L26.3379 11.4508H26.2029Z" fill="#39BFBC"/>
<path d="M26.113 11.4508L25.708 2.90063H25.843L26.248 11.4508H26.113Z" fill="#34BEBD"/>
<path d="M25.9773 11.4508L25.5723 2.90063H25.7073L26.1123 11.4508H25.9773Z" fill="#32BEBB"/>
<path d="M25.8435 11.4508L25.4385 2.90063H25.5735L25.9785 11.4508H25.8435Z" fill="#2FBEBC"/>
<path d="M25.7527 11.4508L25.3477 2.90063H25.4827L25.8877 11.4508H25.7527Z" fill="#2DBDBB"/>
<path d="M25.6179 11.4508L25.2129 2.90063H25.3479L25.7529 11.4508H25.6179Z" fill="#2BBDBA"/>
<path d="M25.4831 11.4508L25.0781 2.90063H25.2131L25.6181 11.4508H25.4831Z" fill="#24BCBB"/>
<path d="M25.3933 11.4508L24.9883 2.90063H25.1233L25.5283 11.4508H25.3933Z" fill="#21BCB9"/>
<path d="M25.2575 11.4508L24.8525 2.90063H24.9875L25.3925 11.4508H25.2575Z" fill="#18BBB9"/>
<path d="M25.1228 11.4508L24.7178 2.90063H24.8528L25.2578 11.4508H25.1228Z" fill="#16BAB9"/>
<path d="M24.988 11.4508L24.583 2.90063H24.718L25.123 11.4508H24.988Z" fill="#11BAB7"/>
<path d="M24.8972 11.4508L24.4922 2.90063H24.6272L25.0322 11.4508H24.8972Z" fill="#03BBB8"/>
<path d="M24.7634 11.4508L24.3584 2.90063H24.4934L24.8984 11.4508H24.7634Z" fill="#06B8B6"/>
<path d="M24.6277 11.4508L24.2227 2.90063H24.3577L24.7627 11.4508H24.6277Z" fill="#06B8B6"/>
<path d="M24.5378 11.4508L24.1328 2.90063H24.2678L24.6728 11.4508H24.5378Z" fill="#06B8B6"/>
<path d="M24.4031 11.4508L23.998 2.90063H24.133L24.5381 11.4508H24.4031Z" fill="#00B7B6"/>
<path d="M24.2683 11.4508L23.8633 2.90063H23.9983L24.4033 11.4508H24.2683Z" fill="#03B7B5"/>
<path d="M24.1325 11.4508L23.7275 2.90063H23.8625L24.2676 11.4508H24.1325Z" fill="#04B7B4"/>
<path d="M24.0427 11.4508L23.6377 2.90063H23.7727L24.1777 11.4508H24.0427Z" fill="#00B6B5"/>
<path d="M23.9079 11.4508L23.5029 2.90063H23.6379L24.0429 11.4508H23.9079Z" fill="#00B6B5"/>
<path d="M23.7732 11.4508L23.3682 2.90063H23.5032L23.9082 11.4508H23.7732Z" fill="#00B6B5"/>
<path d="M23.6826 11.4508L23.2776 2.90063H23.4126L23.8176 11.4508C23.7726 11.4508 23.6826 11.4508 23.6826 11.4508ZM23.5476 11.4508L23.1426 2.90063H23.2776L23.6826 11.4508H23.5476Z" fill="#03B6B4"/>
<path d="M23.4128 11.4508L23.0078 2.90063H23.1428L23.5478 11.4508H23.4128Z" fill="#05B6B2"/>
<path d="M23.2781 11.4508L22.873 2.90063H23.008L23.4131 11.4508H23.2781Z" fill="#01B5B1"/>
<path d="M23.188 11.4508L22.918 5.51069V2.90063L23.323 11.4508H23.188ZM23.053 11.4508L22.918 8.16575V5.55569L23.188 11.4958H23.053V11.4508Z" fill="#01B5B1"/>
<path d="M22.918 11.4508L22.873 10.7758V8.16577L23.008 11.4508C23.0531 11.4508 22.918 11.4508 22.918 11.4508Z" fill="#00B4B1"/>
<path d="M22.918 10.7759L22.963 11.4509H22.918V10.7759Z" fill="#00B4B1"/>
</g>
<path d="M7.5722 2.90063L3.16211 7.31073L7.5722 11.7208H11.3073L7.3922 7.85074L26.7876 7.76074L25.0776 9.47077H26.9676L29.1727 7.26573L26.9676 5.06068H25.0776L26.7876 6.77072L7.3922 6.86072L11.3073 2.94564L7.5722 2.90063Z" fill="#244B5A"/>
</svg>
