<svg width="62" height="74" viewBox="0 0 62 74" fill="none" xmlns="http://www.w3.org/2000/svg">
<path d="M14.6253 17.5716C14.5106 17.5138 14.4533 17.3982 14.3386 17.3404C12.5032 15.5485 11.0694 13.4099 10.2091 10.9244C9.97965 10.2308 9.80759 9.5372 9.80759 8.78578V8.55458C9.86494 7.57196 10.4958 7.10955 11.4135 7.34075C11.7003 7.39855 11.987 7.51416 12.2165 7.68756C13.2488 8.20777 14.0518 8.95919 14.7974 9.82621C16.1166 11.2712 17.2063 13.0053 17.9519 14.8549C17.9519 14.9127 18.0093 14.9705 18.0093 14.9705C18.0093 14.9705 18.0666 15.0283 18.124 15.0283C21.6799 12.8319 25.7521 11.5024 29.9389 11.2712C29.8816 11.1556 29.8816 11.04 29.8816 10.9244C29.4801 9.13259 29.308 7.22515 29.4801 5.37551C29.5375 4.27729 29.7669 3.17907 30.111 2.08084C30.2831 1.50283 30.5698 1.04042 30.914 0.578012C31.0287 0.404608 31.2007 0.289006 31.3728 0.173404C31.7169 -0.0578012 32.1758 -0.0578012 32.5199 0.173404C32.864 0.404608 33.1508 0.751416 33.3802 1.15602C33.7243 1.84964 34.0111 2.60105 34.1258 3.35247C34.4699 4.9709 34.5846 6.64714 34.4126 8.32337C34.3552 9.30599 34.1832 10.3464 33.8964 11.329C34.9288 11.5024 35.9611 11.6758 36.9935 11.907C38.0259 12.1383 39.0009 12.4273 39.9759 12.8319C40.951 13.1787 41.926 13.6411 42.8437 14.1035C43.7613 14.5659 44.6216 15.1439 45.5393 15.6641C45.5967 15.6063 45.5967 15.5485 45.654 15.4329C46.629 12.7163 48.2923 10.2886 50.4718 8.38118C50.988 7.91877 51.5615 7.57196 52.1924 7.34075C52.3645 7.28295 52.5365 7.22515 52.7086 7.22515C53.6263 7.10955 54.0278 7.68756 54.0851 8.43898C54.1425 8.95919 54.0851 9.4794 53.9704 9.99961C53.6263 11.329 53.1101 12.5429 52.4218 13.6989C51.4468 15.3751 50.2424 16.8202 48.7512 18.034C48.6938 18.0918 48.6364 18.0918 48.5791 18.2074C50.0129 19.5946 51.3321 21.1552 52.4792 22.8315C52.3645 22.8315 52.3071 22.8893 52.2498 22.8893H47.6041C47.432 22.8893 47.2599 22.7737 47.1452 22.6581C43.7613 18.8432 39.2303 16.4155 34.2979 15.6641C32.864 15.4329 31.3728 15.3751 29.8816 15.4907C25.5227 15.7797 21.2784 17.456 17.8945 20.2882C17.0342 20.9818 16.1739 21.7911 15.4283 22.6581C15.3136 22.8315 15.0842 22.9471 14.8548 22.9471H10.0944C10.2091 22.6003 11.0694 21.3286 12.1018 20.1726C12.9621 19.2478 13.765 18.4386 14.6253 17.5716ZM52.1351 51.6165C51.1027 53.1193 49.9556 54.4487 48.6364 55.7204C48.7512 55.836 48.8085 55.8938 48.9232 55.9516C51.16 57.859 52.8807 60.3445 53.8557 63.1767C54.0851 63.8703 54.1998 64.6217 54.1998 65.3154C54.1998 65.4888 54.1425 65.6622 54.0851 65.8934C53.913 66.4136 53.3969 66.7604 52.8807 66.6448C52.5365 66.587 52.1924 66.4714 51.9056 66.3558C51.4468 66.1246 50.988 65.8356 50.5865 65.4888C48.407 63.6391 46.7438 61.2115 45.7687 58.4948C45.7114 58.437 45.7114 58.3214 45.654 58.2058C44.5069 59.015 43.3025 59.7086 42.0407 60.2867C40.7789 60.8647 39.4598 61.3849 38.1406 61.7317C36.7641 62.0785 35.445 62.3675 34.0111 62.5409C34.0685 62.6565 34.0685 62.7721 34.0685 62.8877C34.5273 64.6796 34.642 66.5292 34.5273 68.3788C34.4699 69.5349 34.2405 70.6331 33.8964 71.7313C33.7243 72.1937 33.4949 72.5983 33.2655 73.0607C33.1508 73.2341 33.0361 73.3497 32.9214 73.5231C32.3478 74.159 31.6596 74.159 31.086 73.5231C30.8566 73.2919 30.6846 73.0029 30.5125 72.6561C30.0537 71.7891 29.8242 70.8643 29.6522 69.8817C29.4228 68.5522 29.3654 67.2228 29.4228 65.8934C29.4801 64.9108 29.5948 63.9281 29.8242 63.0033C29.8242 62.9455 29.8816 62.8299 29.8816 62.7721C29.8816 62.7721 29.8816 62.7143 29.8242 62.6565C25.6374 62.4253 21.6226 61.1537 18.0093 58.8994L17.8372 59.2462C16.8048 61.6739 15.3136 63.8125 13.3636 65.4888C12.8474 65.9512 12.2738 66.298 11.6429 66.5292C11.3562 66.6448 11.012 66.7026 10.7253 66.6448C10.3811 66.587 10.0944 66.3558 9.92229 65.9512C9.69288 65.431 9.75023 64.9108 9.80759 64.3905C9.92229 63.6391 10.1517 62.9455 10.4385 62.2519C11.2988 60.1133 12.6753 58.2058 14.2812 56.5874C14.3386 56.5296 14.3959 56.4718 14.5106 56.414C14.5106 56.3562 14.568 56.3562 14.568 56.2984C13.0194 54.9111 11.5856 53.3505 10.4385 51.6165C10.6105 51.6165 10.6679 51.5587 10.7826 51.5587H15.371C15.6004 51.5587 15.7724 51.6743 15.8871 51.7899C17.5504 53.5817 19.5005 55.0267 21.6226 56.125C23.8594 57.3388 26.3256 58.0902 28.8492 58.3214C35.7317 59.015 41.6392 56.8764 46.5717 51.9055C46.8011 51.6743 47.0879 51.5009 47.432 51.5587H52.0777L52.1351 51.6165ZM45.7687 29.074C46.1702 29.074 46.5717 29.1318 46.9732 29.074C47.432 29.0162 47.7188 29.1896 48.0629 29.4786C49.8982 31.2127 51.7336 32.9467 53.6263 34.6807L53.913 34.9697C54.0278 34.8541 54.1425 34.7963 54.2572 34.6807C56.1499 32.8889 58.0999 31.097 59.9352 29.3052C60.1073 29.1318 60.3367 29.074 60.5661 29.074H62V44.9115C61.7706 44.9693 58.3867 45.0271 57.9852 44.9115V36.8772L57.9278 36.8194C56.6087 38.0332 55.2895 39.3048 53.9704 40.5186C52.6512 39.247 51.3321 38.0332 49.9556 36.8194L49.8982 36.8772V44.9693H45.8834C45.7687 44.6803 45.7114 29.9988 45.7687 29.074ZM8.94727 29.074H12.9047C13.0194 29.363 13.0194 44.5647 12.9047 44.9115H8.94727C8.88992 43.9289 8.94727 42.8885 8.94727 41.9059V38.9002H4.0148V44.8537C3.72803 44.9693 0.344126 44.9693 0 44.8537V29.074H4.0148V34.6807C4.30157 34.7963 8.48844 34.7963 8.94727 34.6807V29.074ZM17.6651 44.9115V29.1318C17.8945 29.074 26.6124 29.0162 27.1859 29.074V32.4265C27.0712 32.4265 26.8992 32.4843 26.7845 32.4843H21.6799V35.0853H26.555V38.5534H21.7373C21.6226 38.8424 21.6226 40.9233 21.6799 41.5013C21.7946 41.5013 21.9667 41.5591 22.0814 41.5591H27.1859V44.9115H17.6651ZM31.7743 44.9115C31.7169 44.5069 31.7169 29.363 31.7743 29.074H35.7317V40.7499C35.9038 40.7499 36.0185 40.7498 36.1906 40.8077H41.2951V44.9693L31.7743 44.9115Z" fill="#0F1689"/>
</svg>
