<svg width="58" height="57" viewBox="0 0 58 57" fill="none" xmlns="http://www.w3.org/2000/svg">
<path d="M45.2284 3.25464L19.2845 0.484155C18.6484 0.418011 18.5181 1.20607 19.1312 1.39694L37.3188 7.17982L37.382 7.19872C38.9486 7.62532 40.5798 7.77315 42.199 7.63527C43.6955 7.5181 47.0314 6.86044 46.7344 4.71548C46.6767 4.34434 46.4989 4.00155 46.2275 3.73827C45.9561 3.47499 45.6056 3.30534 45.2284 3.25464Z" fill="url(#paint0_linear_2936_895)"/>
<path d="M20.7391 44.6682C20.2793 43.6056 19.4435 42.7498 18.3916 42.2646L3.25265 35.2818C3.12293 35.2206 2.97549 35.2083 2.83739 35.247C2.69928 35.2857 2.57978 35.3729 2.50081 35.4925C2.42184 35.6122 2.3887 35.7563 2.40747 35.8984C2.42625 36.0406 2.49567 36.1711 2.60301 36.2662L22.7245 54.3247C22.9046 54.4873 23.1351 54.5834 23.3775 54.5968C23.6199 54.6102 23.8596 54.5402 24.0566 54.3984C24.2536 54.2566 24.396 54.0516 24.4601 53.8176C24.5242 53.5836 24.5062 53.3347 24.4089 53.1124L20.7391 44.6682Z" fill="url(#paint1_linear_2936_895)"/>
<path d="M23.2309 42.1032C23.9662 41.3679 23.9662 40.1756 23.2309 39.4402C22.4955 38.7048 21.3032 38.7048 20.5678 39.4402C19.8325 40.1756 19.8325 41.3679 20.5678 42.1032C21.3032 42.8386 22.4955 42.8386 23.2309 42.1032Z" fill="url(#paint2_linear_2936_895)"/>
<path d="M15.5646 2.05095C16.6058 1.60703 17.2928 0.911304 17.099 0.499092C16.9053 0.0868797 15.7407 -0.228341 14.6995 0.215579C13.6583 0.6595 13.1338 1.69656 13.3295 2.10877C13.5252 2.52098 14.5214 2.49487 15.5646 2.05095Z" fill="url(#paint3_linear_2936_895)"/>
<path d="M1.75143 34.5743C2.21327 34.4721 2.37765 33.5333 2.11933 32.4775C1.86102 31.4216 1.27785 30.6483 0.81601 30.7505C0.354172 30.8528 -0.191816 31.8659 0.066501 32.931C0.324818 33.9962 1.27981 34.6747 1.75143 34.5743Z" fill="url(#paint4_linear_2936_895)"/>
<path d="M26.6358 54.9284C25.4869 54.8573 24.5295 55.1744 24.4979 55.6396C24.4663 56.1047 25.3487 56.9216 26.4976 56.9946C27.6465 57.0677 28.6276 56.3661 28.6592 55.9029C28.6908 55.4397 27.7807 55.0015 26.6358 54.9284Z" fill="url(#paint5_linear_2936_895)"/>
<path d="M56.989 36.2025C56.5593 36.0625 55.9233 36.7946 55.5941 37.8463C55.2649 38.8981 55.3672 39.8686 55.795 40.0085C56.2227 40.1485 57.1935 39.5224 57.5246 38.4725C57.8556 37.4226 57.4186 36.3405 56.989 36.2025Z" fill="url(#paint6_linear_2936_895)"/>
<path d="M47.8231 3.87982C47.5039 4.22797 47.9015 5.15374 48.7119 5.94698C49.5223 6.74021 50.432 7.10024 50.7531 6.75208C51.0742 6.40393 50.9442 5.19133 50.1262 4.40007C49.3082 3.60881 48.1404 3.53167 47.8231 3.87982Z" fill="url(#paint7_linear_2936_895)"/>
<path d="M36.2459 9.33331L18.7622 2.54867C18.4108 2.41106 18.0291 2.36901 17.656 2.42681C17.283 2.4846 16.932 2.64018 16.6389 2.87763C16.3458 3.11509 16.1212 3.42592 15.9879 3.77837C15.8546 4.13082 15.8175 4.51226 15.8803 4.88371L21.2465 36.4124C21.2825 36.6261 21.3827 36.8239 21.5338 36.9797C21.6848 37.1354 21.8797 37.2418 22.0925 37.2848C22.3054 37.3278 22.5264 37.3053 22.7262 37.2204C22.9261 37.1355 23.0954 36.9922 23.2119 36.8093L37.7465 14.0168C38.0056 13.6228 38.1733 13.176 38.2371 12.7091C38.301 12.2421 38.2596 11.7668 38.1157 11.3179C37.9719 10.869 37.7294 10.4579 37.4059 10.1145C37.0824 9.77114 36.6861 9.50423 36.2459 9.33331Z" fill="url(#paint8_linear_2936_895)"/>
<path d="M7.5669 35.857L17.6095 39.1757C17.7882 39.2324 17.9783 39.2428 18.1621 39.206C18.3459 39.1692 18.5174 39.0864 18.6605 38.9654C18.8035 38.8443 18.9136 38.689 18.9803 38.5139C19.0471 38.3388 19.0683 38.1496 19.042 37.964L14.3476 4.89737C14.3098 4.63353 14.1872 4.38914 13.9983 4.20103C13.8095 4.01293 13.5646 3.89132 13.3005 3.85454C13.0365 3.81775 12.7676 3.86779 12.5345 3.9971C12.3014 4.12641 12.1167 4.32799 12.0081 4.57144L2.77475 25.3716C0.882054 29.624 2.98761 34.2043 7.5669 35.857Z" fill="url(#paint9_linear_2936_895)"/>
<path d="M55.5494 34.2473C55.6129 34.3786 55.7219 34.4821 55.856 34.5382C55.99 34.5943 56.1398 34.5991 56.2771 34.5517C56.4145 34.5044 56.5299 34.4082 56.6016 34.2812C56.6733 34.1542 56.6965 34.0051 56.6667 33.8621C55.3581 27.6845 52.9647 16.5945 51.5451 9.91039C50.9712 7.23561 47.6327 6.50577 45.7539 8.50657C44.7974 9.62732 44.5467 11.5126 45.18 12.7912L55.5494 34.2473Z" fill="url(#paint10_linear_2936_895)"/>
<path d="M54.422 34.8231L43.1865 14.8116C43.0639 14.5985 42.8887 14.4204 42.6775 14.2942C42.4663 14.1679 42.2261 14.0978 41.98 14.0905C41.7339 14.0832 41.4901 14.1389 41.2717 14.2523C41.0533 14.3658 40.8677 14.5332 40.7326 14.7385L24.9745 38.7012C24.8771 38.8498 24.8228 39.0224 24.8178 39.1999C24.8127 39.3774 24.857 39.5528 24.9458 39.7066C25.0346 39.8605 25.1644 39.9868 25.3207 40.0716C25.4771 40.1563 25.654 40.1962 25.8317 40.1868L52.2723 38.7262C52.7183 38.7019 53.1508 38.5647 53.5289 38.3274C53.907 38.0902 54.2183 37.7607 54.4334 37.3701C54.6485 36.9796 54.7603 36.5408 54.7583 36.0951C54.7563 35.6495 54.6406 35.2117 54.422 34.8231Z" fill="url(#paint11_linear_2936_895)"/>
<path d="M32.9665 53.8216L53.7498 41.9721C53.9587 41.8541 54.1203 41.668 54.2075 41.4451C54.2946 41.2223 54.302 40.9763 54.2283 40.7487C54.1546 40.5211 54.0043 40.3257 53.8028 40.1955C53.6014 40.0654 53.361 40.0084 53.1223 40.0341L25.4457 42.8971C24.0909 43.0386 23.3022 44.149 23.5996 45.4715L24.6839 50.1884C25.6645 54.0624 29.683 55.6946 32.9665 53.8216Z" fill="url(#paint12_linear_2936_895)"/>
<path d="M41.8713 12.7031C42.8978 12.5364 43.5949 11.5692 43.4283 10.5426C43.2617 9.5161 42.2944 8.81901 41.2679 8.98564C40.2414 9.15227 39.5443 10.1195 39.7109 11.1461C39.8775 12.1726 40.8448 12.8697 41.8713 12.7031Z" fill="url(#paint13_linear_2936_895)"/>
<defs>
<linearGradient id="paint0_linear_2936_895" x1="16.556" y1="-13.2832" x2="69.9442" y2="40.8488" gradientUnits="userSpaceOnUse">
<stop stop-color="#FF0033"/>
<stop offset="1" stop-color="#AB0000"/>
</linearGradient>
<linearGradient id="paint1_linear_2936_895" x1="-1472.03" y1="1629.09" x2="3954.62" y2="7818.16" gradientUnits="userSpaceOnUse">
<stop stop-color="#FF0033"/>
<stop offset="1" stop-color="#AB0000"/>
</linearGradient>
<linearGradient id="paint2_linear_2936_895" x1="-135.974" y1="253.367" x2="928.093" y2="1317.4" gradientUnits="userSpaceOnUse">
<stop stop-color="#FF0033"/>
<stop offset="1" stop-color="#AB0000"/>
</linearGradient>
<linearGradient id="paint3_linear_2936_895" x1="181.906" y1="-68.0637" x2="791.836" y2="907.824" gradientUnits="userSpaceOnUse">
<stop stop-color="#FF0033"/>
<stop offset="1" stop-color="#AB0000"/>
</linearGradient>
<linearGradient id="paint4_linear_2936_895" x1="-166.773" y1="376.353" x2="778.271" y2="927.629" gradientUnits="userSpaceOnUse">
<stop stop-color="#FF0033"/>
<stop offset="1" stop-color="#AB0000"/>
</linearGradient>
<linearGradient id="paint5_linear_2936_895" x1="-260.455" y1="229.74" x2="210.005" y2="1170.66" gradientUnits="userSpaceOnUse">
<stop stop-color="#FF0033"/>
<stop offset="1" stop-color="#AB0000"/>
</linearGradient>
<linearGradient id="paint6_linear_2936_895" x1="179.582" y1="-117.023" x2="1124.64" y2="434.243" gradientUnits="userSpaceOnUse">
<stop stop-color="#FF0033"/>
<stop offset="1" stop-color="#AB0000"/>
</linearGradient>
<linearGradient id="paint7_linear_2936_895" x1="442.261" y1="-341.135" x2="1347.02" y2="563.627" gradientUnits="userSpaceOnUse">
<stop stop-color="#FF0033"/>
<stop offset="1" stop-color="#AB0000"/>
</linearGradient>
<linearGradient id="paint8_linear_2936_895" x1="538.36" y1="-268.806" x2="9506.08" y2="5490.28" gradientUnits="userSpaceOnUse">
<stop stop-color="#FF0033"/>
<stop offset="1" stop-color="#AB0000"/>
</linearGradient>
<linearGradient id="paint9_linear_2936_895" x1="-296.964" y1="1176.85" x2="7499.84" y2="4916.49" gradientUnits="userSpaceOnUse">
<stop stop-color="#FF0033"/>
<stop offset="1" stop-color="#AB0000"/>
</linearGradient>
<linearGradient id="paint10_linear_2936_895" x1="1121.37" y1="-2043.05" x2="6750.07" y2="407.095" gradientUnits="userSpaceOnUse">
<stop stop-color="#FF0033"/>
<stop offset="1" stop-color="#AB0000"/>
</linearGradient>
<linearGradient id="paint11_linear_2936_895" x1="790.408" y1="-247.937" x2="8094.9" y2="8132.36" gradientUnits="userSpaceOnUse">
<stop stop-color="#FF0033"/>
<stop offset="1" stop-color="#AB0000"/>
</linearGradient>
<linearGradient id="paint12_linear_2936_895" x1="-259.9" y1="400.786" x2="2926.45" y2="7123.63" gradientUnits="userSpaceOnUse">
<stop stop-color="#FF0033"/>
<stop offset="1" stop-color="#AB0000"/>
</linearGradient>
<linearGradient id="paint13_linear_2936_895" x1="370.724" y1="-263.55" x2="1434.75" y2="800.479" gradientUnits="userSpaceOnUse">
<stop stop-color="#FF0033"/>
<stop offset="1" stop-color="#AB0000"/>
</linearGradient>
</defs>
</svg>
