<svg width="85" height="60" viewBox="0 0 85 60" fill="none" xmlns="http://www.w3.org/2000/svg">
<path d="M83.4163 22.5651C83.1819 22.3721 81.0722 20.7907 76.5403 20.7907C75.3683 20.7907 74.157 20.9065 72.9851 21.0993C72.1256 15.1976 67.1638 12.3433 66.9685 12.1891L65.7574 11.4946L64.976 12.6133C63.9993 14.1177 63.257 15.8149 62.8272 17.5507C62.0069 20.9065 62.5147 24.0695 64.2337 26.7694C62.1631 27.9267 58.8032 28.1967 58.1 28.2352H2.62265C1.17717 28.2352 0.00508686 29.3925 0.00508686 30.8197C-0.0729485 35.6026 0.747409 40.3856 2.42742 44.8986C4.34169 49.8359 7.19378 53.5004 10.8662 55.7376C15.0075 58.2447 21.7663 59.6719 29.3846 59.6719C32.8226 59.6719 36.2606 59.3634 39.6596 58.7462C44.3868 57.8975 48.9188 56.2775 53.0992 53.9246C56.525 51.9638 59.612 49.463 62.2411 46.5187C66.6559 41.62 69.2735 36.1427 71.1877 31.2825H71.9691C76.7746 31.2825 79.7437 29.3925 81.3846 27.7723C82.4785 26.7694 83.2989 25.5352 83.885 24.1466L84.2367 23.1437L83.4163 22.5651Z" fill="#0091E2"/>
<path d="M7.77938 26.6536H15.2023C15.554 26.6536 15.8666 26.3837 15.8666 25.998V19.4407C15.8666 19.0935 15.5931 18.785 15.2023 18.785H7.77938C7.4278 18.785 7.11523 19.0549 7.11523 19.4407V25.998C7.15425 26.3837 7.4278 26.6537 7.77938 26.6537V26.6536ZM18.0153 26.6536H25.4383C25.7899 26.6536 26.1025 26.3837 26.1025 25.998V19.4407C26.1025 19.0935 25.8289 18.785 25.4383 18.785H18.0151C17.6635 18.785 17.351 19.0549 17.351 19.4407V25.998C17.3901 26.3837 17.6637 26.6537 18.0151 26.6537M28.4464 26.6537H35.8694C36.221 26.6537 36.5336 26.3837 36.5336 25.998V19.4407C36.5336 19.0935 36.26 18.785 35.8694 18.785H28.4464C28.0948 18.785 27.7822 19.0549 27.7822 19.4407V25.998C27.7822 26.3837 28.0558 26.6537 28.4464 26.6537ZM38.7214 26.6537H46.1445C46.4961 26.6537 46.8086 26.3837 46.8086 25.998V19.4407C46.8086 19.0935 46.5351 18.785 46.1445 18.785H38.7214C38.3698 18.785 38.0573 19.0549 38.0573 19.4407V25.998C38.0573 26.3837 38.3698 26.6537 38.7214 26.6537ZM18.0153 17.2806H25.4382C25.7898 17.2806 26.1023 16.9721 26.1023 16.6249V10.0675C26.1023 9.72034 25.8288 9.41171 25.4382 9.41171H18.0151C17.6635 9.41171 17.351 9.68174 17.351 10.0675V16.6249C17.3901 16.972 17.6638 17.2806 18.0153 17.2806ZM28.4464 17.2806H35.8694C36.221 17.2806 36.5336 16.9721 36.5336 16.6249V10.0675C36.5336 9.72034 36.26 9.41171 35.8694 9.41171H28.4464C28.0948 9.41171 27.7822 9.68174 27.7822 10.0675V16.6249C27.7822 16.972 28.0558 17.2806 28.4464 17.2806ZM38.7214 17.2806H46.1445C46.4961 17.2806 46.8086 16.9721 46.8086 16.6249V10.0675C46.8086 9.72034 46.4959 9.41171 46.1445 9.41171H38.7214C38.3698 9.41171 38.0573 9.68174 38.0573 10.0675V16.6249C38.0573 16.972 38.3698 17.2806 38.7214 17.2806ZM38.7214 7.86889H46.1445C46.4961 7.86889 46.8086 7.59887 46.8086 7.2132V0.655835C46.8086 0.30862 46.4959 0 46.1445 0H38.7214C38.3698 0 38.0573 0.270025 38.0573 0.655835V7.2132C38.0573 7.56027 38.3698 7.86889 38.7214 7.86889ZM49.0745 26.6537H56.4975C56.8491 26.6537 57.1617 26.3837 57.1617 25.998V19.4407C57.1617 19.0935 56.8883 18.785 56.4975 18.785H49.0746C48.7229 18.785 48.4103 19.0549 48.4103 19.4407V25.998C48.4495 26.3837 48.723 26.6537 49.0746 26.6537" fill="#0091E2"/>
</svg>
