<svg width="190" height="34" viewBox="0 0 190 34" fill="none" xmlns="http://www.w3.org/2000/svg">
<path d="M32.9237 1.12109H26.3036C25.8803 1.12109 25.5371 1.46428 25.5371 1.88763V31.998C25.5371 32.4213 25.8803 32.7645 26.3036 32.7645H32.9237C33.3471 32.7645 33.6903 32.4213 33.6903 31.998V1.88763C33.6903 1.46428 33.3471 1.12109 32.9237 1.12109Z" fill="black"/>
<path d="M65.0428 1.12109H58.429C58.0045 1.12109 57.6625 1.46318 57.6625 1.88763V19.9361L47.4124 1.66591C47.2287 1.33015 46.8739 1.12743 46.4938 1.12743H38.7714C38.347 1.12743 38.0049 1.46952 38.0049 1.89397V32.0043C38.0049 32.4288 38.347 32.7709 38.7714 32.7709H45.3852C45.8096 32.7709 46.1517 32.4288 46.1517 32.0043V13.9558L56.3954 32.2324C56.5792 32.5681 56.9339 32.7709 57.314 32.7709H65.0364C65.4609 32.7709 65.803 32.4288 65.803 32.0043V1.89397C65.803 1.46952 65.4609 1.12743 65.0364 1.12743L65.0428 1.12109Z" fill="black"/>
<path d="M91.896 8.31916C92.3205 8.31916 92.6626 7.97706 92.6626 7.55262V1.89544C92.6626 1.471 92.3205 1.12891 91.896 1.12891H70.8954C70.471 1.12891 70.1289 1.471 70.1289 1.89544V32.0058C70.1289 32.4302 70.471 32.7723 70.8954 32.7723H91.896C92.3205 32.7723 92.6626 32.4302 92.6626 32.0058V26.3486C92.6626 25.9242 92.3205 25.5821 91.896 25.5821H78.2757V20.305H90.9331C91.3576 20.305 91.6997 19.9629 91.6997 19.5385V13.8813C91.6997 13.4569 91.3576 13.1148 90.9331 13.1148H78.2757V8.31916H91.896Z" fill="black"/>
<path d="M159.472 2.08446H158.351H133.227C132.802 2.08446 132.46 2.42655 132.46 2.851V8.50817C132.46 8.93262 132.802 9.27471 133.227 9.27471H151.573C150.629 16.8134 147.917 22.7303 137.306 25.4163C136.926 25.5114 136.679 25.8788 136.736 26.2652L137.623 32.4926C137.68 32.9043 138.085 33.1767 138.491 33.0817C157.737 28.6535 159.758 15.0016 160.239 2.87634C160.258 2.43922 159.91 2.07812 159.472 2.07812V2.08446Z" fill="black"/>
<path d="M128.272 4.9582H107.873L107.291 0.865772C107.234 0.460331 106.885 0.15625 106.473 0.15625H100.195C99.7645 0.15625 99.4288 0.536351 99.4921 0.967133L100.062 4.9582H96.787C96.3626 4.9582 96.0205 5.30029 96.0205 5.72473V11.3819C96.0205 11.8064 96.3626 12.1484 96.787 12.1484H101.089L103.933 32.0531C103.99 32.4585 104.338 32.7626 104.75 32.7626H111.028C111.459 32.7626 111.795 32.3825 111.731 31.9517L108.9 12.1484H119.713C118.586 15.1829 116.774 17.5142 114.639 19.193C114.278 19.4781 114.234 20.0165 114.563 20.346L118.649 24.4321C118.928 24.7108 119.365 24.7298 119.675 24.4891C124.604 20.5677 128.221 14.7458 129.039 5.80075C129.077 5.35097 128.728 4.96453 128.272 4.96453V4.9582Z" fill="black"/>
<path d="M21.5271 25.5821H8.75571V1.89544C8.75571 1.471 8.41362 1.12891 7.98917 1.12891H1.36908C0.94463 1.12891 0.602539 1.471 0.602539 1.89544V32.0058C0.602539 32.4302 0.94463 32.7723 1.36908 32.7723H18.0112C18.4103 32.7723 18.7714 32.5506 18.9614 32.2022L22.0339 26.4246C22.2366 26.0445 21.9579 25.5821 21.5271 25.5821Z" fill="black"/>
<path d="M163.628 13.8798V19.537C163.628 19.9614 163.97 20.3035 164.394 20.3035H185.718C186.117 20.3035 186.478 20.0818 186.668 19.7334L189.741 13.9558C189.944 13.5757 189.665 13.1133 189.234 13.1133H164.394C163.97 13.1133 163.628 13.4554 163.628 13.8798Z" fill="black"/>
</svg>
