<svg width="190" height="34" viewBox="0 0 190 34" fill="none" xmlns="http://www.w3.org/2000/svg">
<path d="M32.9157 1.11719H26.3089C25.8864 1.11719 25.5439 1.45969 25.5439 1.88218V31.9319C25.5439 32.3544 25.8864 32.6969 26.3089 32.6969H32.9157C33.3382 32.6969 33.6807 32.3544 33.6807 31.9319V1.88218C33.6807 1.45969 33.3382 1.11719 32.9157 1.11719Z" fill="white"/>
<path d="M64.9703 1.11719H58.3698C57.9462 1.11719 57.6048 1.45859 57.6048 1.88218V19.8943L47.3817 1.65458C47.1984 1.3195 46.8443 1.11719 46.465 1.11719H38.7581C38.3345 1.11719 37.9932 1.45859 37.9932 1.88218V31.9319C37.9932 32.3555 38.3345 32.6969 38.7581 32.6969H45.3586C45.7822 32.6969 46.1236 32.3555 46.1236 31.9319V13.9198L56.3467 32.1595C56.53 32.4946 56.8841 32.6969 57.2634 32.6969H64.9703C65.3939 32.6969 65.7353 32.3555 65.7353 31.9319V1.8885C65.7353 1.46491 65.3939 1.12351 64.9703 1.12351V1.11719Z" fill="white"/>
<path d="M91.7702 8.29687C92.1938 8.29687 92.5352 7.95547 92.5352 7.53188V1.88609C92.5352 1.4625 92.1938 1.12109 91.7702 1.12109H70.8119C70.3883 1.12109 70.0469 1.4625 70.0469 1.88609V31.9359C70.0469 32.3594 70.3883 32.7008 70.8119 32.7008H91.7702C92.1938 32.7008 92.5352 32.3594 92.5352 31.9359V26.2901C92.5352 25.8665 92.1938 25.5251 91.7702 25.5251H78.1773V20.2586H90.8092C91.2328 20.2586 91.5742 19.9172 91.5742 19.4936V13.8478C91.5742 13.4242 91.2328 13.0828 90.8092 13.0828H78.1773V8.29687H91.7702Z" fill="white"/>
<path d="M159.21 2.08054H158.091H133.017C132.593 2.08054 132.252 2.42194 132.252 2.84554V8.49133C132.252 8.91492 132.593 9.25632 133.017 9.25632H151.326C150.384 16.7798 147.678 22.6848 137.089 25.3655C136.709 25.4603 136.463 25.827 136.519 26.2127L137.405 32.4275C137.462 32.8384 137.866 33.1103 138.271 33.0154C157.478 28.5962 159.495 14.9717 159.975 2.87083C159.994 2.43459 159.646 2.07422 159.21 2.07422V2.08054Z" fill="white"/>
<path d="M128.072 4.94853H107.715L107.133 0.864345C107.076 0.459719 106.728 0.15625 106.317 0.15625H100.052C99.6222 0.15625 99.2872 0.535586 99.3504 0.965501L99.9194 4.94853H96.6508C96.2272 4.94853 95.8857 5.28994 95.8857 5.71353V11.3593C95.8857 11.7829 96.2272 12.1243 96.6508 12.1243H100.944L103.782 31.9889C103.839 32.3935 104.187 32.697 104.598 32.697H110.863C111.293 32.697 111.628 32.3176 111.565 31.8877L108.739 12.1243H119.531C118.406 15.1527 116.598 17.4793 114.467 19.1547C114.107 19.4392 114.062 19.9766 114.391 20.3053L118.469 24.3832C118.747 24.6614 119.183 24.6803 119.493 24.4401C124.412 20.5266 128.022 14.7164 128.837 5.78939C128.875 5.34051 128.528 4.95485 128.072 4.95485V4.94853Z" fill="white"/>
<path d="M21.5422 25.5251H8.79645V1.88609C8.79645 1.4625 8.45507 1.12109 8.03148 1.12109H1.43102C1.00743 1.12109 0.666016 1.4625 0.666016 1.88609V31.9359C0.666016 32.3594 1.00743 32.7008 1.43102 32.7008H18.0396C18.438 32.7008 18.7983 32.4796 18.988 32.1318L22.0543 26.3659C22.2566 25.9866 21.9784 25.5251 21.5485 25.5251H21.5422Z" fill="white"/>
<path d="M163.357 13.8509V19.4967C163.357 19.9203 163.699 20.2617 164.122 20.2617H185.403C185.801 20.2617 186.162 20.0404 186.352 19.6927L189.418 13.9268C189.62 13.5475 189.342 13.0859 188.912 13.0859H164.122C163.699 13.0859 163.357 13.4273 163.357 13.8509Z" fill="white"/>
</svg>
